<?xml version="1.0" encoding="UTF-8" standalone="no"?>
<!-- Created with Inkscape (http://www.inkscape.org/) -->

<svg
   xmlns:dc="http://purl.org/dc/elements/1.1/"
   xmlns:cc="http://creativecommons.org/ns#"
   xmlns:rdf="http://www.w3.org/1999/02/22-rdf-syntax-ns#"
   xmlns:svg="http://www.w3.org/2000/svg"
   xmlns="http://www.w3.org/2000/svg"
   xmlns:sodipodi="http://sodipodi.sourceforge.net/DTD/sodipodi-0.dtd"
   xmlns:inkscape="http://www.inkscape.org/namespaces/inkscape"
   width="200mm"
   height="200mm"
   viewBox="0 0 200 200"
   version="1.1"
   id="svg1880"
   inkscape:version="0.92.3 (2405546, 2018-03-11)"
   sodipodi:docname="10.svg">
  <defs
     id="defs1874" />
  <sodipodi:namedview
     id="base"
     pagecolor="#ffffff"
     bordercolor="#666666"
     borderopacity="1.0"
     inkscape:pageopacity="0.0"
     inkscape:pageshadow="2"
     inkscape:zoom="0.49497475"
     inkscape:cx="34.102507"
     inkscape:cy="393.41498"
     inkscape:document-units="mm"
     inkscape:current-layer="layer3"
     showgrid="false"
     inkscape:window-width="1920"
     inkscape:window-height="1052"
     inkscape:window-x="1920"
     inkscape:window-y="0"
     inkscape:window-maximized="1" />
  <metadata
     id="metadata1877">
    <rdf:RDF>
      <cc:Work
         rdf:about="">
        <dc:format>image/svg+xml</dc:format>
        <dc:type
           rdf:resource="http://purl.org/dc/dcmitype/StillImage" />
        <dc:title />
      </cc:Work>
    </rdf:RDF>
  </metadata>
  <g
     inkscape:label="Layer 1"
     inkscape:groupmode="layer"
     id="layer1"
     transform="translate(0,-97)">
    <g
       transform="translate(-1.2436222,1.7047944)"
       style="display:inline;opacity:1"
       id="g6633">
      <path
         transform="matrix(0.26458333,0,0,0.26458333,3.9233057e-7,97)"
         inkscape:connector-curvature="0"
         id="path6605"
         d="m 259.32934,180.95992 39.14148,-68.47928 80.07388,-0.0921 80.07388,-0.0922 34.09239,59.28571 c 18.75082,32.60714 36.52313,63.46429 39.49405,68.57143 l 5.40165,9.28571 H 378.89727 220.18786 Z m 200.57005,7.0507 v -12.85714 h -81.42857 -81.42858 v 12.85714 12.85715 h 81.42858 81.42857 z"
         style="fill:#ffffff;fill-opacity:1;stroke:#ffffff;stroke-width:2.86164212;stroke-miterlimit:4;stroke-dasharray:none;stroke-opacity:1" />
      <path
         transform="matrix(0.26458333,0,0,0.26458333,3.9233057e-7,97)"
         inkscape:connector-curvature="0"
         id="path6607"
         d="M 117.04224,336.58205 V 180.86777 h 58.74005 c 32.30703,0 58.18847,0.96428 57.5143,2.14285 -36.34432,63.53723 -39.11149,69.11736 -39.11149,78.8703 v 10.41542 h 183.97313 183.97313 l 1.14186,-9.7809 c 1.09625,-9.39017 -7.658,-27.34359 -35.28438,-72.36196 l -5.69837,-9.28571 h 58.80446 58.80446 V 336.58205 492.29634 H 378.47082 117.04224 Z"
         style="fill:#ffffff;fill-opacity:1;stroke:#ffffff;stroke-width:2.86164212;stroke-miterlimit:4;stroke-dasharray:none;stroke-opacity:1" />
      <rect
         y="138.30215"
         x="24.734533"
         height="89.400459"
         width="5.907196"
         id="rect6263"
         style="fill:#000000;fill-opacity:1;stroke:#000000;stroke-width:0.22600843;stroke-miterlimit:4;stroke-dasharray:none;stroke-opacity:1" />
      <rect
         y="138.40504"
         x="169.87549"
         height="95.179665"
         width="5.9116426"
         id="rect6263-7"
         style="fill:#000000;fill-opacity:1;stroke:#000000;stroke-width:0.23328684;stroke-miterlimit:4;stroke-dasharray:none;stroke-opacity:1" />
      <rect
         transform="rotate(90)"
         y="-175.78491"
         x="227.72995"
         height="151.02306"
         width="5.8525424"
         id="rect6263-5"
         style="fill:#000000;fill-opacity:1;stroke:#000000;stroke-width:0.29238695;stroke-miterlimit:4;stroke-dasharray:none;stroke-opacity:1" />
      <rect
         transform="matrix(0,-1,-1,0,0,0)"
         y="-175.78712"
         x="-144.41603"
         height="42.392418"
         width="6.0109811"
         id="rect6263-3-4"
         style="fill:#000000;fill-opacity:1;stroke:#000000;stroke-width:0.1569932;stroke-miterlimit:4;stroke-dasharray:none;stroke-opacity:1" />
      <rect
         transform="rotate(90)"
         y="-123.68898"
         x="122.05486"
         height="47.158173"
         width="3.8330917"
         id="rect6263-3-3"
         style="fill:#000000;fill-opacity:1;stroke:#000000;stroke-width:1.5;stroke-miterlimit:4;stroke-dasharray:none;stroke-opacity:1" />
      <rect
         transform="matrix(0.94328836,-0.33197449,0.49863389,0.86681269,0,0)"
         y="159.06599"
         x="43.85001"
         height="48.116909"
         width="3.5110793"
         id="rect6263-7-4"
         style="fill:#000000;fill-opacity:1;stroke:#000000;stroke-width:1.5;stroke-miterlimit:4;stroke-dasharray:none;stroke-opacity:1" />
      <rect
         transform="rotate(-90)"
         y="24.734533"
         x="-144.31314"
         height="42.392418"
         width="6.0109811"
         id="rect6263-3-4-9"
         style="fill:#000000;fill-opacity:1;stroke:#000000;stroke-width:0.1569932;stroke-miterlimit:4;stroke-dasharray:none;stroke-opacity:1" />
      <rect
         transform="matrix(-0.94328837,-0.33197448,-0.49863388,0.8668127,0,0)"
         y="91.260933"
         x="-132.88466"
         height="48.116913"
         width="3.5110793"
         id="rect6263-7-4-7"
         style="fill:#000000;fill-opacity:1;stroke:#000000;stroke-width:1.5;stroke-miterlimit:4;stroke-dasharray:none;stroke-opacity:1" />
      <rect
         transform="rotate(90)"
         y="-147.89764"
         x="164.29227"
         height="95.170662"
         width="3.8332734"
         id="rect6263-3-3-7"
         style="fill:#000000;fill-opacity:1;stroke:#000000;stroke-width:1.5;stroke-miterlimit:4;stroke-dasharray:none;stroke-opacity:1" />
      <rect
         transform="rotate(-90)"
         y="78.921974"
         x="-149.44453"
         height="42.392418"
         width="6.0109811"
         id="rect6263-3-4-9-6"
         style="fill:#000000;fill-opacity:1;stroke:#000000;stroke-width:0.1569932;stroke-miterlimit:4;stroke-dasharray:none;stroke-opacity:1" />
    </g>
  </g>
  <g
     inkscape:groupmode="layer"
     id="layer3"
     inkscape:label="Layer 2">
    <g
       transform="matrix(0.78483165,0,0,0.84980404,-44.168023,-150.05429)"
       style="display:inline;opacity:1"
       id="g2530">
      <g
         id="g1850">
        <g
           transform="translate(-3.2072344,-30.468727)"
           id="g1860">
          <path
             style="fill:#000000;stroke-width:0.24726848"
             inkscape:connector-curvature="0"
             d="m 292.09682,337.5493 c -0.19087,-0.65025 -0.54537,-1.12111 -0.9544,-1.5247 l -22.82386,-20.56094 c -0.5181,-0.47086 -1.11801,-0.69508 -1.79972,-0.98657 -0.7908,-0.33632 -1.6634,-0.35875 -2.56326,-0.35875 h -43.60259 c -3.3813,0 -6.46266,2.15251 -6.46266,5.13463 v 75.15846 c 0,3.00454 3.08136,5.80729 6.46266,5.80729 h 66.29011 c 3.38131,0 5.78095,-2.80275 5.78095,-5.80729 v -54.73205 c 0,-0.80719 -0.10906,-1.39016 -0.32723,-2.13008 z m -25.57798,-12.98232 15.81582,14.23794 h -15.81582 z m -43.90255,68.49912 v -71.75031 h 35.17658 v 18.31875 c 0,3.31844 3.65399,6.34541 7.66249,6.34541 h 18.24272 v 47.08615 z"
             id="path1705" />
          <rect
             y="339.19992"
             x="228.19261"
             height="8.075408"
             width="16.298218"
             id="rect1789"
             style="fill:#000000;fill-opacity:1;stroke:#000000;stroke-width:0.20767686;stroke-miterlimit:4;stroke-dasharray:none;stroke-opacity:1" />
          <rect
             y="365.78961"
             x="228.1956"
             height="7.9303756"
             width="47.870762"
             id="rect1789-0-3"
             style="display:inline;opacity:1;fill:#000000;fill-opacity:1;stroke:#000000;stroke-width:0.35271004;stroke-miterlimit:4;stroke-dasharray:none;stroke-opacity:1" />
        </g>
      </g>
      <path
         transform="matrix(0.26458333,0,0,0.26458333,0,97)"
         inkscape:connector-curvature="0"
         id="path2519"
         d="M 829.8257,868.3259 V 733.97561 h 65.53747 65.53746 l 0.62753,38.22824 c 0.61666,37.56599 0.71502,38.32297 5.67829,43.69693 9.10947,9.86325 14.88428,11.00887 55.49355,11.00887 h 37.4405 v 87.88327 87.88328 H 944.98309 829.8257 Z m 203.0407,47.47717 v -15.15229 l -92.42899,-0.52545 -92.42896,-0.52546 v 16.2032 16.2032 l 92.42896,-0.52545 92.42899,-0.52546 z M 912.65821,815.74667 v -17.2239 l -31.8198,0.55638 -31.81981,0.55638 -0.60433,13.94169 c -0.33238,7.66793 -0.13362,15.16831 0.44167,16.66752 0.8157,2.12566 7.95473,2.72582 32.42414,2.72582 h 31.37813 z"
         style="fill:#ffffff;fill-opacity:1;stroke:#ffffff;stroke-width:2.02348661;stroke-miterlimit:4;stroke-dasharray:none;stroke-opacity:1" />
      <path
         transform="matrix(0.26458333,0,0,0.26458333,0,97)"
         inkscape:connector-curvature="0"
         id="path2521"
         d="m 995.49072,773.37156 c 0,-13.8896 0.46006,-25.25381 1.02236,-25.25381 0.86205,0 39.79602,34.67247 52.45962,46.71771 3.9062,3.71547 3.4201,3.78992 -24.7487,3.78992 h -28.73328 z"
         style="fill:#ffffff;fill-opacity:1;stroke:#ffffff;stroke-width:2.02348661;stroke-miterlimit:4;stroke-dasharray:none;stroke-opacity:1" />
    </g>
    <path
       style="fill:#ffff00;fill-opacity:1;stroke:#000000;stroke-width:2.02030516;stroke-linecap:round;stroke-linejoin:miter;stroke-miterlimit:19.29999924;stroke-dasharray:none;stroke-opacity:1"
       d="M 112.08628,342.69154 V 187.12805 h 58.805 c 52.42044,0 58.67382,0.34183 57.59683,3.14844 -0.66449,1.73164 -9.69181,17.86883 -20.0607,35.86041 -17.80612,30.89628 -18.80508,33.24464 -17.99745,42.30843 l 0.85508,9.59645 H 374.92937 558.5737 v -9.98503 c 0,-8.87316 -1.93458,-13.31629 -17.37327,-39.90103 -9.55529,-16.45379 -18.67002,-32.41612 -20.25493,-35.47183 l -2.88166,-5.55584 h 58.64073 58.64073 v 87.13043 87.13042 l -8.97196,-8.27006 c -4.93459,-4.54854 -11.07127,-8.79347 -13.63705,-9.43318 -2.56581,-0.63971 -36.18551,-0.8978 -74.71044,-0.57354 l -70.04531,0.58957 -5.21106,4.89786 -5.21103,4.89785 v 72.37881 72.37882 H 284.82237 112.08628 Z"
       id="path837"
       inkscape:connector-curvature="0"
       transform="scale(0.26458333)" />
    <path
       style="fill:#ffff00;fill-opacity:1;stroke:#000000;stroke-width:2.02030516;stroke-linecap:round;stroke-linejoin:miter;stroke-miterlimit:19.29999924;stroke-dasharray:none;stroke-opacity:1"
       d="m 215.69682,255.31335 c 0.554,-1.38896 18.27884,-32.52691 39.38854,-69.19545 l 38.38127,-66.67007 80.53068,-0.49001 80.53068,-0.49001 34.34519,59.93481 c 18.88985,32.96414 36.8637,64.3226 39.9419,69.68546 l 5.59671,9.75065 H 374.55066 c -127.07924,0 -159.65456,-0.51787 -158.85384,-2.52538 z m 239.84133,-62.12438 v -12.12183 h -81.82236 -81.82236 v 12.12183 12.12183 h 81.82236 81.82236 z"
       id="path839"
       inkscape:connector-curvature="0"
       transform="scale(0.26458333)" />
  </g>
</svg>
