<?xml version="1.0" encoding="UTF-8" standalone="no"?>
<!-- Created with Inkscape (http://www.inkscape.org/) -->

<svg
   xmlns:dc="http://purl.org/dc/elements/1.1/"
   xmlns:cc="http://creativecommons.org/ns#"
   xmlns:rdf="http://www.w3.org/1999/02/22-rdf-syntax-ns#"
   xmlns:svg="http://www.w3.org/2000/svg"
   xmlns="http://www.w3.org/2000/svg"
   xmlns:sodipodi="http://sodipodi.sourceforge.net/DTD/sodipodi-0.dtd"
   xmlns:inkscape="http://www.inkscape.org/namespaces/inkscape"
   width="200mm"
   height="200mm"
   viewBox="0 0 200 200"
   version="1.1"
   id="svg4353"
   inkscape:version="0.92.3 (2405546, 2018-03-11)"
   sodipodi:docname="2.svg">
  <defs
     id="defs4347" />
  <sodipodi:namedview
     id="base"
     pagecolor="#ffffff"
     bordercolor="#666666"
     borderopacity="1.0"
     inkscape:pageopacity="0.0"
     inkscape:pageshadow="2"
     inkscape:zoom="0.7"
     inkscape:cx="-37.174557"
     inkscape:cy="586.0067"
     inkscape:document-units="mm"
     inkscape:current-layer="layer1"
     showgrid="false"
     inkscape:window-width="1920"
     inkscape:window-height="1025"
     inkscape:window-x="1920"
     inkscape:window-y="0"
     inkscape:window-maximized="1" />
  <metadata
     id="metadata4350">
    <rdf:RDF>
      <cc:Work
         rdf:about="">
        <dc:format>image/svg+xml</dc:format>
        <dc:type
           rdf:resource="http://purl.org/dc/dcmitype/StillImage" />
        <dc:title />
      </cc:Work>
    </rdf:RDF>
  </metadata>
  <g
     inkscape:label="Layer 1"
     inkscape:groupmode="layer"
     id="layer1"
     transform="translate(0,-97)">
    <path
       id="path4699"
       d="m 161.56024,162.76134 c -0.30095,-1.16692 -0.85988,-2.01192 -1.50481,-2.73622 l -35.98664,-36.8989 c -0.8169,-0.84502 -1.76278,-1.2474 -2.83765,-1.77051 -1.24685,-0.60358 -2.62268,-0.64381 -4.04151,-0.64381 H 48.440959 c -5.331354,0 -10.189766,3.86292 -10.189766,9.21465 v 134.88019 c 0,5.39197 4.858412,10.42183 10.189766,10.42183 H 152.96129 c 5.33135,0 9.11489,-5.02986 9.11489,-10.42183 v -98.22271 c 0,-1.44859 -0.17197,-2.4948 -0.51594,-3.82269 z m -40.3291,-23.2982 24.93697,25.55158 H 121.23114 Z M 52.009528,262.39241 V 133.62852 h 55.463282 v 32.87503 c 0,5.95533 5.7613,11.38756 12.08153,11.38756 h 28.76352 v 84.5013 z"
       inkscape:connector-curvature="0"
       style="stroke-width:0.4159393" />
    <path
       style="fill:#ffffff;fill-opacity:1;stroke:#ffffff;stroke-width:2.86164212;stroke-miterlimit:4;stroke-dasharray:none;stroke-opacity:1"
       d="M 196.85714,381.90551 V 140.47694 h 104.28572 104.28571 v 66.72033 c 0,64.66712 0.19992,67.017 6.49656,76.36058 3.57311,5.30214 10.83468,12.5637 16.13681,16.13681 9.27955,6.25349 11.92283,6.49657 70.64629,6.49657 h 61.00606 V 464.76265 623.33408 H 378.28571 196.85714 Z"
       id="path816"
       inkscape:connector-curvature="0"
       transform="matrix(0.26458333,0,0,0.26458333,0,97)" />
    <path
       style="fill:#ffffff;fill-opacity:1;stroke:#ffffff;stroke-width:2.86164212;stroke-miterlimit:4;stroke-dasharray:none;stroke-opacity:1"
       d="m 459.71429,209.80093 v -44.96172 l 40.18658,39.96172 c 22.10262,21.97895 41.43357,42.21172 42.95767,44.96172 2.58435,4.66308 -0.12363,5 -40.18659,5 h -42.95766 z"
       id="path818"
       inkscape:connector-curvature="0"
       transform="matrix(0.26458333,0,0,0.26458333,0,97)" />
  </g>
</svg>
