<?xml version="1.0" encoding="UTF-8" standalone="no"?>
<svg
   xmlns:dc="http://purl.org/dc/elements/1.1/"
   xmlns:cc="http://creativecommons.org/ns#"
   xmlns:rdf="http://www.w3.org/1999/02/22-rdf-syntax-ns#"
   xmlns:svg="http://www.w3.org/2000/svg"
   xmlns="http://www.w3.org/2000/svg"
   xmlns:sodipodi="http://sodipodi.sourceforge.net/DTD/sodipodi-0.dtd"
   xmlns:inkscape="http://www.inkscape.org/namespaces/inkscape"
   version="1.1"
   id="Capa_1"
   x="0px"
   y="0px"
   width="433.21118"
   height="433.20322"
   viewBox="0 0 433.21117 433.20321"
   xml:space="preserve"
   sodipodi:docname="q.svg"
   inkscape:version="0.92.3 (2405546, 2018-03-11)"><metadata
   id="metadata41"><rdf:RDF><cc:Work
       rdf:about=""><dc:format>image/svg+xml</dc:format><dc:type
         rdf:resource="http://purl.org/dc/dcmitype/StillImage" /></cc:Work></rdf:RDF></metadata><defs
   id="defs39" /><sodipodi:namedview
   pagecolor="#ffffff"
   bordercolor="#666666"
   borderopacity="1"
   objecttolerance="10"
   gridtolerance="10"
   guidetolerance="10"
   inkscape:pageopacity="0"
   inkscape:pageshadow="2"
   inkscape:window-width="1920"
   inkscape:window-height="1052"
   id="namedview37"
   showgrid="false"
   inkscape:zoom="1"
   inkscape:cx="-60.384757"
   inkscape:cy="89.45576"
   inkscape:window-x="1920"
   inkscape:window-y="0"
   inkscape:window-maximized="1"
   inkscape:current-layer="Capa_1" />
<g
   id="g4"
   transform="rotate(45,282.18447,224.44066)">
	<path
   d="m 434.961,270.163 c 0,110.241 -89.684,199.92 -199.923,199.92 -110.235,0 -199.917,-89.679 -199.917,-199.92 0,-36.44 9.915,-72.129 28.658,-103.178 l 52.163,31.487 c -13.013,21.56 -19.89,46.353 -19.896,71.697 0,76.64 62.35,138.985 138.985,138.985 76.642,0 138.989,-62.346 138.989,-138.985 0,-73.864 -57.961,-134.275 -130.759,-138.566 h -29.808 l 25.1,63.541 c 0.843,2.128 0.16,4.558 -1.669,5.932 -1.827,1.38 -4.351,1.374 -6.168,-0.026 L 105.91,105.085 c -1.25,-0.966 -1.989,-2.444 -1.989,-4.037 0,-1.584 0.739,-3.074 1.989,-4.037 L 230.724,1.052 C 231.64,0.346 232.727,0 233.824,0 c 1.082,0 2.154,0.34 3.068,1.022 1.829,1.374 2.512,3.807 1.669,5.938 l -25.1,63.534 21.586,-0.254 c 7.72,0 33.325,2.598 37.545,3.591 92.339,17.629 162.369,98.935 162.369,196.332 z"
   id="path2"
   inkscape:connector-curvature="0" />
</g>
<g
   id="g6"
   transform="translate(0.54707476,0.74677689)">
</g>
<g
   id="g8"
   transform="translate(0.54707476,0.74677689)">
</g>
<g
   id="g10"
   transform="translate(0.54707476,0.74677689)">
</g>
<g
   id="g12"
   transform="translate(0.54707476,0.74677689)">
</g>
<g
   id="g14"
   transform="translate(0.54707476,0.74677689)">
</g>
<g
   id="g16"
   transform="translate(0.54707476,0.74677689)">
</g>
<g
   id="g18"
   transform="translate(0.54707476,0.74677689)">
</g>
<g
   id="g20"
   transform="translate(0.54707476,0.74677689)">
</g>
<g
   id="g22"
   transform="translate(0.54707476,0.74677689)">
</g>
<g
   id="g24"
   transform="translate(0.54707476,0.74677689)">
</g>
<g
   id="g26"
   transform="translate(0.54707476,0.74677689)">
</g>
<g
   id="g28"
   transform="translate(0.54707476,0.74677689)">
</g>
<g
   id="g30"
   transform="translate(0.54707476,0.74677689)">
</g>
<g
   id="g32"
   transform="translate(0.54707476,0.74677689)">
</g>
<g
   id="g34"
   transform="translate(0.54707476,0.74677689)">
</g>
</svg>