<?xml version="1.0" encoding="UTF-8" standalone="no"?>
<!-- Created with Inkscape (http://www.inkscape.org/) -->

<svg
   xmlns:dc="http://purl.org/dc/elements/1.1/"
   xmlns:cc="http://creativecommons.org/ns#"
   xmlns:rdf="http://www.w3.org/1999/02/22-rdf-syntax-ns#"
   xmlns:svg="http://www.w3.org/2000/svg"
   xmlns="http://www.w3.org/2000/svg"
   xmlns:sodipodi="http://sodipodi.sourceforge.net/DTD/sodipodi-0.dtd"
   xmlns:inkscape="http://www.inkscape.org/namespaces/inkscape"
   width="200mm"
   height="200mm"
   viewBox="0 0 200 200"
   version="1.1"
   id="svg4353"
   inkscape:version="0.92.3 (2405546, 2018-03-11)"
   sodipodi:docname="4.svg">
  <defs
     id="defs4347" />
  <sodipodi:namedview
     id="base"
     pagecolor="#ffffff"
     bordercolor="#666666"
     borderopacity="1.0"
     inkscape:pageopacity="0.0"
     inkscape:pageshadow="2"
     inkscape:zoom="0.35"
     inkscape:cx="-413.91186"
     inkscape:cy="589.69155"
     inkscape:document-units="mm"
     inkscape:current-layer="layer1"
     showgrid="false"
     inkscape:window-width="1920"
     inkscape:window-height="1025"
     inkscape:window-x="1920"
     inkscape:window-y="0"
     inkscape:window-maximized="1" />
  <metadata
     id="metadata4350">
    <rdf:RDF>
      <cc:Work
         rdf:about="">
        <dc:format>image/svg+xml</dc:format>
        <dc:type
           rdf:resource="http://purl.org/dc/dcmitype/StillImage" />
        <dc:title />
      </cc:Work>
    </rdf:RDF>
  </metadata>
  <g
     inkscape:label="Layer 1"
     inkscape:groupmode="layer"
     id="layer1"
     transform="translate(0,-97)">
    <g
       id="g4667"
       transform="matrix(0.34874209,0,0,0.34726545,10.885365,110.58202)">
      <g
         id="g4484">
        <g
           id="g4482">
          <path
             id="path4480"
             d="m 256,44.405 c -116.674,0 -211.594,94.922 -211.594,211.594 0,116.672 94.92,211.595 211.594,211.595 116.674,0 211.594,-94.922 211.594,-211.594 C 467.594,139.328 372.674,44.405 256,44.405 Z m 0,404.673 C 149.536,449.078 62.922,362.463 62.922,256 62.922,149.537 149.537,62.922 256,62.922 c 106.463,0 193.078,86.615 193.078,193.078 0,106.463 -86.614,193.078 -193.078,193.078 z"
             inkscape:connector-curvature="0" />
        </g>
      </g>
      <g
         id="g4490">
        <g
           id="g4488">
          <path
             id="path4486"
             d="M 256,0 C 114.842,0 0.001,114.841 0.001,256.001 c 0,141.16 114.841,256 255.999,256 C 397.16,512.001 512.001,397.16 512.001,256 512.001,114.84 397.16,0 256,0 Z m 0,493.483 C 125.052,493.483 18.518,386.949 18.518,256.001 18.518,125.053 125.052,18.517 256,18.517 c 130.949,0 237.484,106.534 237.484,237.484 0,130.95 -106.535,237.482 -237.484,237.482 z"
             inkscape:connector-curvature="0" />
        </g>
      </g>
      <g
         id="g4496">
        <g
           id="g4494">
          <path
             id="path4492"
             d="m 359.073,152.929 c -3.614,-3.616 -9.477,-3.616 -13.091,0 l -77.076,77.076 c -3.89,-1.939 -8.27,-3.036 -12.904,-3.036 -4.632,0 -9.009,1.096 -12.899,3.033 l -42.762,-42.763 c -3.615,-3.616 -9.477,-3.616 -13.093,0 -3.616,3.616 -3.616,9.477 0,13.093 l 42.761,42.761 c -1.939,3.89 -3.037,8.271 -3.037,12.905 0,4.633 1.097,9.014 3.036,12.904 l -1.608,1.609 c -3.616,3.616 -3.616,9.477 0,13.093 1.807,1.808 4.177,2.712 6.546,2.712 2.369,0 4.739,-0.904 6.546,-2.712 l 1.608,-1.609 c 3.889,1.938 8.268,3.034 12.9,3.034 4.63,0 9.009,-1.096 12.898,-3.033 l 1.607,1.607 c 1.807,1.808 4.177,2.712 6.546,2.712 2.369,0 4.739,-0.904 6.546,-2.712 3.616,-3.616 3.616,-9.477 0,-13.093 l -1.605,-1.605 c 1.939,-3.891 3.037,-8.272 3.037,-12.906 0,-4.632 -1.096,-9.012 -3.034,-12.9 l 77.077,-77.077 c 3.616,-3.616 3.616,-9.477 10e-4,-13.093 z M 256,266.513 c -5.796,0 -10.513,-4.716 -10.513,-10.513 0,-5.797 4.716,-10.514 10.513,-10.514 5.797,0 10.514,4.717 10.514,10.514 0,5.797 -4.716,10.513 -10.514,10.513 z"
             inkscape:connector-curvature="0" />
        </g>
      </g>
      <g
         id="g4502">
        <g
           id="g4500">
          <path
             id="path4498"
             d="m 256,71.036 c -5.113,0 -9.258,4.145 -9.258,9.258 v 18.928 c 0,5.114 4.145,9.26 9.258,9.26 5.113,0 9.258,-4.145 9.258,-9.258 v -18.93 c 0,-5.113 -4.145,-9.258 -9.258,-9.258 z"
             inkscape:connector-curvature="0" />
        </g>
      </g>
      <g
         id="g4508">
        <g
           id="g4506">
          <path
             id="path4504"
             d="m 256,403.519 c -5.113,0 -9.258,4.145 -9.258,9.258 v 18.928 c 0,5.113 4.145,9.258 9.258,9.258 5.113,0 9.258,-4.145 9.258,-9.258 v -18.928 c 0,-5.113 -4.144,-9.258 -9.258,-9.258 z"
             inkscape:connector-curvature="0" />
        </g>
      </g>
      <g
         id="g4514">
        <g
           id="g4512">
          <path
             id="path4510"
             d="m 185.629,115.598 -9.465,-16.392 c -2.557,-4.429 -8.219,-5.945 -12.647,-3.389 -4.428,2.557 -5.945,8.219 -3.389,12.647 l 9.465,16.392 c 1.715,2.97 4.827,4.63 8.026,4.63 1.57,0 3.163,-0.4 4.621,-1.242 4.429,-2.556 5.946,-8.218 3.389,-12.646 z"
             inkscape:connector-curvature="0" />
        </g>
      </g>
      <g
         id="g4520">
        <g
           id="g4518">
          <path
             id="path4516"
             d="m 351.872,403.536 -9.465,-16.392 c -2.557,-4.429 -8.221,-5.945 -12.647,-3.389 -4.428,2.557 -5.945,8.219 -3.389,12.647 l 9.465,16.392 c 1.715,2.97 4.827,4.63 8.026,4.63 1.57,0 3.164,-0.4 4.621,-1.242 4.429,-2.555 5.946,-8.218 3.389,-12.646 z"
             inkscape:connector-curvature="0" />
        </g>
      </g>
      <g
         id="g4526">
        <g
           id="g4524">
          <path
             id="path4522"
             d="m 124.858,169.594 -16.392,-9.465 c -4.428,-2.558 -10.091,-1.039 -12.647,3.389 -2.556,4.428 -1.039,10.09 3.389,12.647 l 16.392,9.465 c 1.458,0.842 3.05,1.242 4.621,1.242 3.2,0 6.312,-1.66 8.026,-4.63 2.556,-4.429 1.039,-10.091 -3.389,-12.648 z"
             inkscape:connector-curvature="0" />
        </g>
      </g>
      <g
         id="g4532">
        <g
           id="g4530">
          <path
             id="path4528"
             d="m 412.795,335.835 -16.392,-9.465 c -4.429,-2.558 -10.091,-1.039 -12.647,3.389 -2.557,4.428 -1.039,10.091 3.389,12.647 l 16.392,9.465 c 1.458,0.842 3.05,1.242 4.621,1.242 3.2,0 6.312,-1.66 8.026,-4.63 2.557,-4.429 1.039,-10.092 -3.389,-12.648 z"
             inkscape:connector-curvature="0" />
        </g>
      </g>
      <g
         id="g4538">
        <g
           id="g4536">
          <path
             id="path4534"
             d="m 431.706,246.742 h -18.928 c -5.113,0 -9.258,4.145 -9.258,9.258 0,5.113 4.145,9.258 9.258,9.258 h 18.928 c 5.113,0 9.258,-4.145 9.258,-9.258 0,-5.113 -4.145,-9.258 -9.258,-9.258 z"
             inkscape:connector-curvature="0" />
        </g>
      </g>
      <g
         id="g4544">
        <g
           id="g4542">
          <path
             id="path4540"
             d="M 99.223,246.742 H 80.295 c -5.113,0 -9.258,4.145 -9.258,9.258 0,5.113 4.145,9.258 9.258,9.258 h 18.928 c 5.114,0 9.258,-4.145 9.258,-9.258 0,-5.113 -4.145,-9.258 -9.258,-9.258 z"
             inkscape:connector-curvature="0" />
        </g>
      </g>
      <g
         id="g4550">
        <g
           id="g4548">
          <path
             id="path4546"
             d="m 416.184,163.518 c -2.557,-4.429 -8.218,-5.945 -12.647,-3.389 l -16.392,9.465 c -4.428,2.557 -5.945,8.219 -3.389,12.647 1.715,2.97 4.827,4.63 8.026,4.63 1.57,0 3.163,-0.4 4.621,-1.242 l 16.392,-9.465 c 4.428,-2.555 5.946,-8.218 3.389,-12.646 z"
             inkscape:connector-curvature="0" />
        </g>
      </g>
      <g
         id="g4556">
        <g
           id="g4554">
          <path
             id="path4552"
             d="m 128.247,329.76 c -2.557,-4.429 -8.22,-5.945 -12.647,-3.389 l -16.392,9.465 c -4.428,2.557 -5.945,8.219 -3.389,12.647 1.715,2.97 4.827,4.63 8.026,4.63 1.57,0 3.163,-0.4 4.621,-1.242 l 16.392,-9.465 c 4.428,-2.556 5.945,-8.218 3.389,-12.646 z"
             inkscape:connector-curvature="0" />
        </g>
      </g>
      <g
         id="g4562">
        <g
           id="g4560">
          <path
             id="path4558"
             d="m 348.482,95.817 c -4.429,-2.557 -10.091,-1.039 -12.647,3.389 l -9.465,16.392 c -2.557,4.428 -1.039,10.091 3.389,12.647 1.458,0.842 3.05,1.242 4.621,1.242 3.2,0 6.312,-1.66 8.026,-4.63 l 9.465,-16.392 c 2.557,-4.429 1.039,-10.092 -3.389,-12.648 z"
             inkscape:connector-curvature="0" />
        </g>
      </g>
      <g
         id="g4568">
        <g
           id="g4566">
          <path
             id="path4564"
             d="m 182.241,383.755 c -4.429,-2.558 -10.091,-1.041 -12.647,3.389 l -9.465,16.392 c -2.557,4.428 -1.039,10.091 3.389,12.647 1.458,0.842 3.05,1.242 4.621,1.242 3.2,0 6.312,-1.66 8.026,-4.63 l 9.465,-16.392 c 2.557,-4.429 1.04,-10.092 -3.389,-12.648 z"
             inkscape:connector-curvature="0" />
        </g>
      </g>
      <g
         id="g4570" />
      <g
         id="g4572" />
      <g
         id="g4574" />
      <g
         id="g4576" />
      <g
         id="g4578" />
      <g
         id="g4580" />
      <g
         id="g4582" />
      <g
         id="g4584" />
      <g
         id="g4586" />
      <g
         id="g4588" />
      <g
         id="g4590" />
      <g
         id="g4592" />
      <g
         id="g4594" />
      <g
         id="g4596" />
      <g
         id="g4598" />
    </g>
    <path
       style="fill:#ffffff;fill-opacity:1;stroke:none;stroke-width:2.86164212;stroke-miterlimit:4;stroke-dasharray:none;stroke-opacity:1"
       d="M 327.52815,693.34137 C 213.66074,672.70068 121.6639,595.34271 84.575724,489.04837 25.070626,318.50738 123.99403,134.32544 300.55482,86.924616 c 24.81452,-6.661888 32.98925,-7.452234 77.73089,-7.515146 45.2728,-0.06366 52.64112,0.645108 77.93529,7.49669 116.40831,31.5322 198.86326,117.97081 228.2572,239.28507 2.4504,10.11322 3.71886,32.51746 3.5588,62.85714 -0.21743,41.21954 -1.18,50.62714 -7.66054,74.87374 -31.96477,119.59432 -128.959,208.31663 -250.45137,229.09223 -31.81018,5.43963 -73.45869,5.57266 -102.39694,0.32703 z M 446.73271,657.6878 c 28.92189,-7.1554 71.22232,-26.6612 95.41449,-43.99806 40.27206,-28.8602 79.15094,-78.49266 96.51706,-123.2128 C 686.4788,367.34771 643.74889,229.06518 535.43029,156.3913 491.1952,126.71278 445.89434,112.10897 391.14286,109.8768 c -80.3352,-3.27519 -148.58183,22.02788 -205.16464,76.0667 -39.32987,37.56157 -64.72425,80.02117 -78.29517,130.91012 -10.304947,38.64205 -10.922167,98.21978 -1.41028,136.12901 26.89387,107.18434 113.20733,188.12237 222.76482,208.89148 30.14818,5.71529 85.65315,3.741 117.69512,-4.18631 z"
       id="path986"
       inkscape:connector-curvature="0"
       transform="matrix(0.26458333,0,0,0.26458333,0,97)" />
    <path
       style="fill:#ffffff;fill-opacity:1;stroke:none;stroke-width:2.86164212;stroke-miterlimit:4;stroke-dasharray:none;stroke-opacity:1"
       d="M 348.20581,637.66683 C 241.20071,622.6378 156.7328,547.17165 132.4428,444.89777 c -7.96117,-33.52081 -7.92216,-81.19938 0.094,-114.95194 12.16908,-51.23833 44.41252,-103.10222 84.98944,-136.70632 23.45265,-19.4225 68.3263,-42.12919 99.33085,-50.2628 31.15059,-8.17191 85.30018,-8.89272 116.60152,-1.55212 106.34623,24.93966 183.67991,111.38761 196.44131,219.59315 9.54257,80.9128 -25.12923,165.90354 -89.52377,219.44911 -51.0858,42.479 -129.9176,65.94349 -192.17039,57.19998 z m 39.14064,-10.48986 c 3.83549,-3.47106 5.22498,-8.83966 5.22498,-20.18783 0,-19.90929 -3.55789,-26.5122 -14.28572,-26.5122 -10.50709,0 -14.28571,6.58369 -14.28571,24.89071 0,22.35949 11.18893,32.81175 23.34645,21.80932 z M 280.41856,583.46048 c 10.89272,-18.26588 10.79501,-17.6418 4.06349,-25.95488 -7.93764,-9.80257 -17.41435,-5.87495 -26.91062,11.15317 -8.59704,15.41566 -9.75233,23.06583 -4.30578,28.5124 7.5327,7.53268 17.47985,2.50994 27.15291,-13.71069 z m 223.01001,13.58789 c 1.88572,-1.88572 3.42857,-6.33332 3.42857,-9.88354 0,-9.61715 -14.72665,-32.36092 -22.17997,-34.25463 -13.37314,-3.39783 -19.52006,11.70794 -10.67717,26.23868 2.35714,3.87329 6.24391,10.25663 8.63729,14.1852 4.67565,7.6748 14.98842,9.51715 20.79128,3.71429 z M 199,506.13168 c 13.98909,-8.78465 17.57458,-17.6516 10.14286,-25.08331 -5.28405,-5.28406 -13.08269,-4.12897 -28.39659,4.20588 -14.8683,8.09235 -20.13659,17.69495 -13.85834,25.2598 5.45486,6.57269 17.22459,4.96646 32.11207,-4.38237 z m 390.68349,4.38237 c 6.27825,-7.56485 1.00997,-17.16745 -13.85835,-25.2598 -15.77554,-8.58614 -23.8106,-9.56302 -28.83748,-3.506 -6.27315,7.55866 -2.14863,16.59786 11.29805,24.76049 14.50283,8.80374 26.17923,10.29326 31.39778,4.00531 z M 379.191,425.22085 c 10.7122,-0.39765 20.10951,0.30086 20.88291,1.55226 2.49227,4.03257 9.48606,2.42957 15.45886,-3.54323 3.2002,-3.2002 4.96852,-7.19381 3.92966,-8.87474 -1.03886,-1.68093 -2.11746,-12.50829 -2.39686,-24.06081 l -0.50803,-21.00459 50.86409,-50.80521 c 41.04294,-40.99542 50.86408,-52.30864 50.86408,-58.59158 0,-7.5528 -6.56851,-13.70172 -14.63668,-13.70172 -1.97106,0 -27.0018,23.29411 -55.6238,51.7647 l -52.04006,51.76471 h -17.63093 -17.63093 l -29.37603,-28.90757 c -28.68759,-28.2301 -36.58563,-32.81207 -43.91871,-25.47899 -8.68624,8.68624 -3.85247,17.68491 24.87114,46.30073 l 28.2997,28.19351 -1.09584,26.64505 c -0.9434,22.93868 -0.40881,27.05617 3.84316,29.60063 2.71644,1.62554 7.51041,2.26125 10.65327,1.41271 3.14286,-0.84857 14.47881,-1.8682 25.191,-2.26586 z M 180.57143,397.04837 c 4.96702,-4.96702 4.24859,-18.50254 -1.09082,-20.55146 -2.48567,-0.95384 -12.72615,-1.73426 -22.75662,-1.73426 -15.10645,0 -18.74497,0.94873 -21.19489,5.52646 -4.01828,7.50822 -3.73282,10.43309 1.53212,15.69803 5.48525,5.48525 38.28616,6.28527 43.51021,1.06123 z m 441.1924,-3.93617 c 5.67491,-12.4551 0.33634,-16.78914 -21.89072,-17.77167 -20.88162,-0.92305 -27.30168,1.91234 -27.30168,12.05768 0,10.29566 5.60646,13.07873 26.34697,13.07873 18.17309,0 19.71651,-0.49756 22.84543,-7.36474 z M 209.14286,294.19123 c 4.98334,-4.98334 4.19883,-15.00863 -1.57143,-20.08144 -2.75,-2.4176 -10.56875,-7.19629 -17.375,-10.61931 -11.61606,-5.84199 -12.80955,-5.93895 -19.46077,-1.5809 -10.64467,6.97466 -7.76194,15.48097 8.94595,26.39757 15.01769,9.81226 23.78253,11.56279 29.46125,5.88408 z m 366.67531,-4.42858 c 16.5868,-9.25016 20.49972,-18.23766 11.74974,-26.98762 -6.72745,-6.72748 -11.2116,-5.80085 -30.19874,6.24044 -13.79417,8.748 -17.35363,17.76274 -9.9406,25.17576 5.32269,5.32268 13.07186,4.11386 28.3896,-4.42858 z M 279.55998,221.56937 c 9.31493,-3.57447 10.69312,-11.68156 4.18592,-24.62324 -8.24858,-16.40498 -13.73075,-22.18348 -21.04587,-22.18348 -13.75554,0 -16.60804,11.84333 -6.80027,28.23419 11.67391,19.50959 14.80773,21.96955 23.66022,18.57253 z m 211.47279,-2.81909 c 6.30112,-6.3011 15.82437,-25.48308 15.82437,-31.8738 0,-7.14553 -5.50537,-12.11383 -13.42331,-12.11383 -7.96892,0 -23.5818,22.99721 -23.66526,34.85803 -0.0851,12.11001 12.76617,17.62763 21.2642,9.1296 z M 388.08163,190.27286 c 6.19491,-6.19491 6.19491,-36.25407 0,-42.44898 C 376.73245,136.47469 364,147.69651 364,169.04837 c 0,21.35186 12.73245,32.57368 24.08163,21.22449 z"
       id="path988"
       inkscape:connector-curvature="0"
       transform="matrix(0.26458333,0,0,0.26458333,0,97)" />
    <path
       style="fill:#aaeeff;fill-opacity:1;stroke:none;stroke-width:2.86164212;stroke-miterlimit:4;stroke-dasharray:none;stroke-opacity:1"
       d="m 371.4176,396.74543 c -10.71362,-7.83399 0.67527,-27.26419 11.86811,-20.2478 7.03839,4.41212 8.08033,15.70532 1.86812,20.2478 -2.80673,2.05233 -5.89738,3.73151 -6.86812,3.73151 -0.97073,0 -4.06138,-1.67918 -6.86811,-3.73151 z"
       id="path990"
       inkscape:connector-curvature="0"
       transform="matrix(0.26458333,0,0,0.26458333,0,97)" />
    <path
       style="fill:#55ddff;fill-opacity:0.2607362;stroke:none;stroke-width:2.85714293;stroke-opacity:1"
       d="m 346.11119,634.44165 c -23.43592,-3.41434 -45.16692,-9.90725 -67.99736,-20.31668 -17.88396,-8.15409 -18.84606,-9.04009 -12.98785,-11.96074 9.96381,-4.96749 25.15973,-26.78878 25.15973,-36.12926 0,-10.93994 -11.53283,-19.15812 -20.89745,-14.89132 -9.61995,4.38315 -22.97204,30.70009 -20.88084,41.15612 l 1.69703,8.48514 -17.37456,-12.18757 C 214.15353,575.49663 177.82316,538.34711 169.4361,523.77423 l -5.13532,-8.92286 8.28562,1.65714 C 186.83489,519.3582 216,500.84614 216,488.95245 c 0,-6.20371 -8.99567,-14.19691 -15.93926,-14.163 -3.01912,0.0143 -12.20407,3.87778 -20.41101,8.58452 -11.26339,6.45963 -15.49555,10.77228 -17.26238,17.59068 -2.33512,9.01152 -2.36272,8.98372 -11.61256,-11.70317 -10.94822,-24.4852 -20.44095,-61.93751 -20.46906,-80.75796 l -0.02,-13.40199 7.85715,4.09867 c 12.04208,6.28175 36.60003,5.39099 43.57143,-1.5804 6.86366,-6.86366 7.33938,-15.10959 1.22448,-21.22449 -3.21048,-3.21049 -10.08422,-4.4898 -24.1237,-4.4898 -17.05021,0 -20.2192,0.83562 -24.08163,6.35002 -4.25597,6.07624 -4.4459,5.6759 -4.40549,-9.28572 0.0667,-24.70798 10.4754,-63.23224 24.97477,-92.43592 l 4.08551,-8.22876 3.3315,6.68232 c 4.87688,9.78204 25.26697,23.05566 36.24388,23.59418 7.54598,0.3702 10.40442,-1.09036 13.81944,-7.06117 3.90007,-6.8189 3.83012,-8.25357 -0.74268,-15.23256 -2.77656,-4.23755 -11.66885,-10.772 -19.76066,-14.52099 -13.38737,-6.20245 -15.29759,-6.4329 -21.21033,-2.55872 -8.67239,5.68237 -8.20414,3.3902 2.55401,-12.50218 16.8935,-24.95577 47.39563,-55.13272 67.80152,-67.07868 l 8.77208,-5.13533 -1.6933,8.46649 c -1.23435,6.17176 0.50212,12.5002 6.4068,23.34904 9.99864,18.3708 17.81095,22.68909 28.44357,15.72233 6.59356,-4.32026 7.36719,-6.33353 5.90238,-15.36009 -2.18538,-13.46691 -15.7419,-32.65308 -24.53936,-34.72988 -5.80151,-1.36954 -3.21289,-3.30631 16.4047,-12.27375 27.76054,-12.68968 53.09578,-19.08933 75.79988,-19.14697 l 16.63594,-0.0422 -5.92166,7.52817 c -8.10142,10.29929 -8.10142,31.78723 0,42.08652 7.14975,9.08943 14.18825,9.58521 21.49267,1.51392 7.82207,-8.6433 7.65524,-36.61613 -0.27147,-45.51579 l -5.71428,-6.41569 24.28571,1.60293 c 24.8338,1.63911 48.0734,8.06918 76.71203,21.22514 12.21266,5.61023 14.75329,7.73051 10.43083,8.70501 -8.11932,1.8305 -15.47626,9.04063 -21.7326,21.29882 -6.81637,13.35551 -6.87746,22.90039 -0.18543,28.95672 7.65326,6.92611 13.33811,5.83252 21.76969,-4.18781 11.34951,-13.48813 16.76237,-28.26455 13.20994,-36.06134 -1.61646,-3.54799 -2.16566,-6.45089 -1.22032,-6.45089 4.62266,0 38.55629,26.97378 52.5952,41.80782 14.69972,15.53226 34.13495,41.26834 34.13495,45.20141 0,0.93166 -3.16435,-0.37942 -7.03186,-2.91352 -6.59289,-4.31983 -7.8388,-4.20445 -19.95806,1.84821 -17.69023,8.83493 -25.09488,17.27082 -23.94285,27.27736 0.66605,5.78541 3.12477,8.86837 8.59877,10.78189 10.0476,3.5123 32.65677,-7.72425 41.2762,-20.51388 l 6.08503,-9.0291 8.74442,19.55651 c 11.11403,24.85606 17.65346,50.09942 19.62892,75.77111 1.36763,17.77289 1.06934,19.58257 -2.4716,14.99511 -5.91752,-7.66642 -36.74672,-10.10154 -46.5518,-3.67701 -9.09623,5.96008 -9.5192,16.96968 -0.88429,23.0178 7.7332,5.41655 36.31232,6.00203 42.77523,0.87629 2.47672,-1.96428 5.19237,-5.5 6.0348,-7.85714 0.84243,-2.35714 1.62417,2.78572 1.73723,11.42857 0.26686,20.4044 -8.61689,57.06783 -19.99226,82.5084 l -9.02065,20.17426 -6.08918,-9.19846 c -7.62965,-11.52557 -30.48297,-23.363 -40.33214,-20.89103 -9.1602,2.29909 -12.24086,13.61392 -6.21186,22.81535 2.44892,3.73751 10.49898,9.72248 17.88906,13.29997 11.12303,5.38457 14.838,5.97546 21.57669,3.43188 4.47711,-1.68991 8.1402,-2.45162 8.1402,-1.69268 0,3.2336 -18.11586,27.30214 -32.05726,42.59094 -14.80306,16.23372 -45.91686,41.24709 -51.30674,41.24709 -1.50443,0 -1.96215,-2.43617 -1.01712,-5.41372 3.85706,-12.15248 -16.43994,-43.15771 -28.25243,-43.15771 -5.83208,0 -13.08074,9.8412 -13.08074,17.75923 0,10.37123 16.99454,34.54048 25.71429,36.57031 6.09994,1.41997 3.93134,3.00134 -14.8528,10.83086 -25.32649,10.55648 -46.78626,16.39434 -75.1472,20.44286 -23.00999,3.28465 -33.30494,3.24674 -57.03167,-0.21 z m 41.71514,-5.14682 c 5.88391,-4.76969 6.73756,-7.90535 6.68602,-24.55923 -0.0479,-15.48717 -1.09496,-19.84886 -5.54609,-23.1036 -8.05406,-5.88929 -17.73706,-4.8966 -22.80425,2.33783 -5.23451,7.47331 -5.92052,31.22757 -1.16286,40.26637 6.23861,11.85237 12.68434,13.2808 22.82718,5.05863 z m 28.38081,-204.0466 c 5.54357,-4.74656 5.83937,-6.94104 3.96632,-29.42685 l -2.024,-24.2978 49.96923,-50.52332 c 27.48305,-27.78783 50.85637,-53.36761 51.94068,-56.84397 3.82297,-12.25662 -9.34017,-24.54661 -19.93823,-18.61564 -2.51108,1.40527 -27.50723,24.62653 -55.547,51.60281 l -50.98141,49.04777 h -16.72054 -16.72053 l -22.79012,-23.00816 c -29.0519,-29.32985 -39.29302,-35.99441 -48.71451,-31.70169 -5.08631,2.31747 -6.93274,5.43148 -6.93274,11.69203 0,9.34694 6.62411,18.22927 36.88101,49.45412 l 18.69537,19.29345 0.0689,26.3125 c 0.0847,32.32835 -0.001,32.26306 42.41833,32.19363 25.10374,-0.0411 31.48883,-0.9488 36.4292,-5.17888 z"
       id="path3569"
       inkscape:connector-curvature="0"
       transform="matrix(0.26458333,0,0,0.26458333,0,97)" />
    <path
       style="fill:#ff80b2;fill-opacity:0.2607362;stroke:none;stroke-width:2.85714293;stroke-opacity:1"
       d="m 333.14286,691.41914 c -25.4266,-3.61203 -74.11769,-20.2702 -100,-34.21194 C 99.068971,584.98705 37.900153,429.48008 87.629119,287.27358 115.76813,206.80637 178.68959,139.21868 256.82115,105.53432 301.60821,86.22557 322.57455,82.755178 387.1444,83.962956 c 52.25469,0.977424 57.62209,1.585735 80.28417,9.098952 52.39086,17.369262 89.9022,40.148932 127.3888,77.359942 40.47417,40.1766 69.55163,90.66539 83.84994,145.5932 9.04783,34.75767 8.52512,107.68258 -1.04214,145.39786 C 639.12291,613.19334 488.83769,713.53677 333.14286,691.41914 Z M 437.57189,661.8618 C 500.8552,650.08628 563.59531,609.54037 605.506,553.33408 c 36.51791,-48.97411 53.75071,-100.80125 54.15083,-162.85714 0.24666,-38.25457 -2.5434,-57.85211 -12.81314,-90 C 596.87749,144.06528 420.73831,64.814579 266.12612,129.1798 187.83649,161.77185 121.38771,242.27752 102.37414,327.57261 c -6.205263,27.83689 -6.003843,96.24099 0.36067,122.48556 11.95311,49.28963 35.17416,91.36866 71.47373,129.51811 36.27016,38.11852 72.62743,60.94592 121.79146,76.46837 41.15607,12.99412 91.81511,15.07569 141.57189,5.81715 z"
       id="path3573"
       inkscape:connector-curvature="0"
       transform="matrix(0.26458333,0,0,0.26458333,0,97)" />
  </g>
</svg>
