<?xml version="1.0" encoding="UTF-8" standalone="no"?>
<!-- Created with Inkscape (http://www.inkscape.org/) -->

<svg
   xmlns:dc="http://purl.org/dc/elements/1.1/"
   xmlns:cc="http://creativecommons.org/ns#"
   xmlns:rdf="http://www.w3.org/1999/02/22-rdf-syntax-ns#"
   xmlns:svg="http://www.w3.org/2000/svg"
   xmlns="http://www.w3.org/2000/svg"
   xmlns:sodipodi="http://sodipodi.sourceforge.net/DTD/sodipodi-0.dtd"
   xmlns:inkscape="http://www.inkscape.org/namespaces/inkscape"
   width="200mm"
   height="200mm"
   viewBox="0 0 200 200"
   version="1.1"
   id="svg4908"
   sodipodi:docname="6.svg"
   inkscape:version="0.92.3 (2405546, 2018-03-11)">
  <defs
     id="defs4902" />
  <sodipodi:namedview
     id="base"
     pagecolor="#ffffff"
     bordercolor="#666666"
     borderopacity="1.0"
     inkscape:pageopacity="0.0"
     inkscape:pageshadow="2"
     inkscape:zoom="1.4"
     inkscape:cx="295.79375"
     inkscape:cy="429.08264"
     inkscape:document-units="mm"
     inkscape:current-layer="layer1"
     showgrid="false"
     inkscape:measure-start="0,0"
     inkscape:measure-end="0,0"
     inkscape:window-width="1920"
     inkscape:window-height="1025"
     inkscape:window-x="1920"
     inkscape:window-y="0"
     inkscape:window-maximized="1" />
  <metadata
     id="metadata4905">
    <rdf:RDF>
      <cc:Work
         rdf:about="">
        <dc:format>image/svg+xml</dc:format>
        <dc:type
           rdf:resource="http://purl.org/dc/dcmitype/StillImage" />
        <dc:title />
      </cc:Work>
    </rdf:RDF>
  </metadata>
  <g
     inkscape:label="Layer 1"
     inkscape:groupmode="layer"
     id="layer1"
     transform="translate(0,-97)">
    <g
       id="g6425">
      <g
         id="g6375">
        <rect
           style="fill:none;fill-opacity:1;stroke:#0000b3;stroke-width:2;stroke-miterlimit:4;stroke-dasharray:none;stroke-opacity:1"
           id="rect4924"
           width="174.49985"
           height="114.77962"
           x="11.401857"
           y="145.11617" />
        <path
           style="fill:none;stroke:#000ddb;stroke-width:2;stroke-linecap:butt;stroke-linejoin:miter;stroke-miterlimit:4;stroke-dasharray:none;stroke-opacity:1"
           d="M 10.583333,167.73214 H 185.96428"
           id="path5731"
           inkscape:connector-curvature="0" />
      </g>
      <path
         transform="matrix(0.26458333,0,0,0.26458333,0,97)"
         inkscape:connector-curvature="0"
         id="path6419"
         d="m 48,224.76265 v -38.57142 h 324.28571 324.28572 v 38.57142 38.57143 H 372.28571 48 Z"
         style="fill:#0000ff;fill-opacity:1;stroke:#000ddb;stroke-width:2.86164212;stroke-miterlimit:4;stroke-dasharray:none;stroke-opacity:1" />
    </g>
    <rect
       style="fill:#ffffff;fill-opacity:1;stroke:#ffffff;stroke-width:0.16627671;stroke-miterlimit:4;stroke-dasharray:none;stroke-opacity:1"
       id="rect1163"
       width="12.19396"
       height="2.7445586"
       x="12.7"
       y="153.72389" />
    <ellipse
       style="fill:#2b0000;fill-opacity:1;stroke:#ffffff;stroke-width:0.16437176;stroke-miterlimit:4;stroke-dasharray:none;stroke-opacity:1"
       id="path1165"
       cx="21.043819"
       cy="209.45125"
       r="2.6961477" />
    <circle
       style="fill:#2b0000;fill-opacity:1;stroke:#ffffff;stroke-width:0.16437176;stroke-miterlimit:4;stroke-dasharray:none;stroke-opacity:1"
       id="path1165-0"
       cx="30.644424"
       cy="209.45126"
       r="2.6961477" />
    <circle
       style="fill:#2b0000;fill-opacity:1;stroke:#ffffff;stroke-width:0.16437176;stroke-miterlimit:4;stroke-dasharray:none;stroke-opacity:1"
       id="path1165-8"
       cx="40.195297"
       cy="209.44389"
       r="2.6961477" />
    <circle
       style="fill:#2b0000;fill-opacity:1;stroke:#ffffff;stroke-width:0.16437176;stroke-miterlimit:4;stroke-dasharray:none;stroke-opacity:1"
       id="path1165-0-7"
       cx="49.795902"
       cy="209.44391"
       r="2.6961477" />
    <circle
       style="fill:#2b0000;fill-opacity:1;stroke:#ffffff;stroke-width:0.16437176;stroke-miterlimit:4;stroke-dasharray:none;stroke-opacity:1"
       id="path1165-9"
       cx="59.197021"
       cy="209.42657"
       r="2.6961477" />
    <circle
       style="fill:#2b0000;fill-opacity:1;stroke:#ffffff;stroke-width:0.16437176;stroke-miterlimit:4;stroke-dasharray:none;stroke-opacity:1"
       id="path1165-0-2"
       cx="68.79763"
       cy="209.42659"
       r="2.6961477" />
    <circle
       style="fill:#2b0000;fill-opacity:1;stroke:#ffffff;stroke-width:0.16437176;stroke-miterlimit:4;stroke-dasharray:none;stroke-opacity:1"
       id="path1165-8-0"
       cx="78.348503"
       cy="209.41922"
       r="2.6961477" />
    <circle
       style="fill:#2b0000;fill-opacity:1;stroke:#ffffff;stroke-width:0.16437176;stroke-miterlimit:4;stroke-dasharray:none;stroke-opacity:1"
       id="path1165-06"
       cx="87.934937"
       cy="209.35698"
       r="2.6961477" />
    <circle
       style="fill:#2b0000;fill-opacity:1;stroke:#ffffff;stroke-width:0.16437176;stroke-miterlimit:4;stroke-dasharray:none;stroke-opacity:1"
       id="path1165-0-3"
       cx="97.535545"
       cy="209.35699"
       r="2.6961477" />
    <circle
       style="fill:#2b0000;fill-opacity:1;stroke:#ffffff;stroke-width:0.16437176;stroke-miterlimit:4;stroke-dasharray:none;stroke-opacity:1"
       id="path1165-8-2"
       cx="107.0864"
       cy="209.34962"
       r="2.6961477" />
    <circle
       style="fill:#2b0000;fill-opacity:1;stroke:#ffffff;stroke-width:0.16437176;stroke-miterlimit:4;stroke-dasharray:none;stroke-opacity:1"
       id="path1165-0-7-0"
       cx="116.68697"
       cy="209.34964"
       r="2.6961477" />
    <circle
       style="fill:#2b0000;fill-opacity:1;stroke:#ffffff;stroke-width:0.16437176;stroke-miterlimit:4;stroke-dasharray:none;stroke-opacity:1"
       id="path1165-9-6"
       cx="126.0881"
       cy="209.33231"
       r="2.6961477" />
    <circle
       style="fill:#2b0000;fill-opacity:1;stroke:#ffffff;stroke-width:0.16437176;stroke-miterlimit:4;stroke-dasharray:none;stroke-opacity:1"
       id="path1165-0-2-1"
       cx="135.68861"
       cy="209.33232"
       r="2.6961477" />
    <circle
       style="fill:#2b0000;fill-opacity:1;stroke:#ffffff;stroke-width:0.16437176;stroke-miterlimit:4;stroke-dasharray:none;stroke-opacity:1"
       id="path1165-8-0-5"
       cx="145.23938"
       cy="209.32495"
       r="2.6961477" />
    <circle
       style="fill:#2b0000;fill-opacity:1;stroke:#ffffff;stroke-width:0.16437176;stroke-miterlimit:4;stroke-dasharray:none;stroke-opacity:1"
       id="path1165-5"
       cx="154.57466"
       cy="209.043"
       r="2.6961477" />
    <circle
       style="fill:#2b0000;fill-opacity:1;stroke:#ffffff;stroke-width:0.16437176;stroke-miterlimit:4;stroke-dasharray:none;stroke-opacity:1"
       id="path1165-0-4"
       cx="164.17511"
       cy="209.04301"
       r="2.6961477" />
    <circle
       style="fill:#2b0000;fill-opacity:1;stroke:#ffffff;stroke-width:0.16437176;stroke-miterlimit:4;stroke-dasharray:none;stroke-opacity:1"
       id="path1165-8-7"
       cx="173.72598"
       cy="209.03564"
       r="2.6961477" />
    <path
       style="fill:#ffffff;fill-opacity:1;stroke:#ffffff;stroke-width:1.43082106;stroke-miterlimit:4;stroke-dasharray:none;stroke-opacity:1"
       d="m 47.145851,441.94415 v -170 H 372.86013 698.57442 v 170 170 H 372.86013 47.145851 Z m 40.357143,-10.21919 c 5.847238,-6.91022 1.048343,-16.92367 -8.1106,-16.92367 -8.125426,0 -13.787953,10.01693 -9.032257,15.97793 4.785298,5.9981 12.507231,6.42411 17.142857,0.94574 z m 35.612876,0.18323 c 3.49789,-3.49788 4.1365,-5.06366 3.35024,-8.21428 -1.50094,-6.01439 -4.89962,-8.89262 -10.50061,-8.89262 -6.78942,0 -10.24822,3.41476 -10.24822,10.11773 0,4.1205 0.88612,6.0862 3.76408,8.35001 5.15845,4.05765 8.55504,3.71863 13.63451,-1.36084 z m 33.98196,2.20364 c 9.2395,-4.77792 5.97475,-18.12677 -4.65537,-19.03478 -11.57592,-0.9888 -15.59998,15.38143 -4.84608,19.71427 4.34309,1.74987 4.8775,1.71166 9.50145,-0.67949 z m 38.97659,-1.78611 c 3.42474,-3.08633 3.2301,-11.08004 -0.35714,-14.66728 -4.2538,-4.2538 -11.90062,-3.80955 -15.6106,0.90694 -3.37936,4.29616 -3.60536,6.11547 -1.36928,11.02311 3.00142,6.5874 11.56448,7.93937 17.33702,2.73723 z m 35.71429,-0.60076 c 5.84784,-6.91095 1.04831,-16.92367 -8.11225,-16.92367 -5.20664,0 -8.60737,2.43359 -10.13745,7.25442 -3.42349,10.78647 10.88808,18.36918 18.2497,9.66925 z m 35.95238,0.14926 c 1.52256,-1.4616 2.73809,-4.55811 2.73809,-6.97513 0,-6.18204 -4.06249,-10.0978 -10.47619,-10.0978 -6.36051,0 -10.47618,3.90595 -10.47618,9.94232 0,9.96587 10.84008,14.2096 18.21428,7.13061 z m 32.75145,2.76954 c 3.39635,-1.54748 6.65331,-6.65387 6.65331,-10.43131 0,-1.03564 -1.33237,-3.57683 -2.96083,-5.64707 -3.94944,-5.02092 -12.91204,-5.34593 -16.24388,-0.58907 -4.09489,5.84628 -2.09403,14.38347 3.94095,16.81501 4.19262,1.68924 4.5942,1.68236 8.61045,-0.14756 z m 39.51045,-2.69961 c 8.42623,-8.42623 -2.03158,-22.02669 -12.69635,-16.51171 -6.61878,3.4227 -7.74653,9.46151 -2.91425,15.60477 3.70999,4.71648 11.3568,5.16074 15.6106,0.90694 z m 36.44526,-0.0184 c 3.9341,-4.34711 3.3528,-11.21681 -1.28683,-15.20764 -4.79266,-4.12248 -7.95049,-4.21717 -12.82291,-0.38452 -4.46042,3.50856 -5.18155,11.6765 -1.39982,15.85526 3.28626,3.63129 12.12082,3.48141 15.50956,-0.2631 z m 36.77823,-1.59607 c 3.83457,-5.15853 2.31335,-11.95084 -3.33012,-14.8692 -7.65934,-3.96081 -15.60765,0.95797 -15.60765,9.65871 0,9.53345 13.05438,13.12519 18.93777,5.21047 z m 35.34794,1.6145 c 8.03221,-8.03221 -1.23886,-21.36357 -11.81143,-16.98427 -6.82517,2.82707 -8.5339,10.05808 -3.79917,16.07733 3.70999,4.71648 11.3568,5.16074 15.6106,0.90694 z m 35.71429,0 c 6.53358,-6.53359 1.5744,-17.71429 -7.85715,-17.71429 -9.5361,0 -13.76437,9.16572 -7.75345,16.80735 3.70998,4.71648 11.3568,5.16074 15.6106,0.90694 z m 36.29862,0.14358 c 3.92353,-4.33544 3.38785,-11.47482 -1.15412,-15.38165 -4.89876,-4.21374 -8.25093,-4.21069 -13.16008,0.0114 -4.63962,3.99083 -5.22092,10.86052 -1.28682,15.20764 3.43994,3.8011 12.22514,3.89233 15.60102,0.16203 z m 36.92486,-1.7581 c 3.8158,-5.13328 2.31267,-11.95119 -3.2715,-14.83888 -5.44698,-2.81675 -7.42817,-2.67646 -11.90218,0.8428 -4.7601,3.7443 -5.1606,11.35694 -0.82556,15.69198 4.17493,4.17493 12.27327,3.31652 15.99924,-1.6959 z m 34.27651,0.50985 c 3.19735,-2.80765 3.27573,-11.38462 0.13572,-14.85427 -3.28626,-3.63128 -12.12081,-3.48142 -15.50956,0.2631 -3.08367,3.4074 -3.40095,10.29564 -0.62814,13.63667 4.2403,5.10924 10.82337,5.50193 16.00197,0.9545 z m 33.88056,1.84378 c 6.53854,-3.38121 7.07139,-14.10022 0.90559,-18.21724 -3.1268,-2.08781 -10.85727,-1.0936 -13.71472,1.76384 -4.92538,4.92539 -3.06424,14.56559 3.30767,17.13289 4.3431,1.74987 4.8775,1.71166 9.50146,-0.67949 z m 38.97659,-2.38687 c 4.70144,-5.55613 2.91061,-13.43114 -3.68499,-16.20437 -12.18031,-5.12144 -21.39244,12.15473 -9.86828,18.50671 4.73748,2.61125 10.17751,1.68713 13.55327,-2.30234 z"
       id="path4012"
       inkscape:connector-curvature="0"
       transform="matrix(0.26458333,0,0,0.26458333,0,97)" />
    <path
       style="fill:#000000;fill-opacity:1;stroke:#020202;stroke-width:0.35770527;stroke-miterlimit:4;stroke-dasharray:none;stroke-opacity:1"
       d="m 76.529395,434.17988 c -4.082202,-1.45355 -6.59204,-4.90133 -6.589887,-9.05254 0.0014,-2.73407 0.738111,-4.63548 2.516268,-6.49452 3.868088,-4.04404 10.122382,-4.13722 14.050275,-0.20933 2.618142,2.61814 3.390156,5.95453 2.217788,9.58455 -1.623369,5.02648 -7.3175,7.90838 -12.194444,6.17184 z"
       id="path4014"
       inkscape:connector-curvature="0"
       transform="matrix(0.26458333,0,0,0.26458333,0,97)" />
  </g>
</svg>
