<?xml version="1.0" encoding="UTF-8" standalone="no"?>
<!-- Created with Inkscape (http://www.inkscape.org/) -->

<svg
   xmlns:osb="http://www.openswatchbook.org/uri/2009/osb"
   xmlns:dc="http://purl.org/dc/elements/1.1/"
   xmlns:cc="http://creativecommons.org/ns#"
   xmlns:rdf="http://www.w3.org/1999/02/22-rdf-syntax-ns#"
   xmlns:svg="http://www.w3.org/2000/svg"
   xmlns="http://www.w3.org/2000/svg"
   xmlns:xlink="http://www.w3.org/1999/xlink"
   xmlns:sodipodi="http://sodipodi.sourceforge.net/DTD/sodipodi-0.dtd"
   xmlns:inkscape="http://www.inkscape.org/namespaces/inkscape"
   width="200mm"
   height="200mm"
   viewBox="0 0 200 200"
   version="1.1"
   id="svg1545"
   inkscape:version="0.92.3 (2405546, 2018-03-11)"
   sodipodi:docname="7.svg">
  <defs
     id="defs1539">
    <linearGradient
       id="linearGradient3053"
       osb:paint="solid">
      <stop
         style="stop-color:#ffffff;stop-opacity:1;"
         offset="0"
         id="stop3051" />
    </linearGradient>
    <linearGradient
       id="linearGradient1709">
      <stop
         id="stop1710"
         offset="0"
         stop-color="#ffcd00" />
      <stop
         id="stop1711"
         offset="1"
         stop-color="#ff0000" />
    </linearGradient>
    <linearGradient
       id="linearGradient4728">
      <stop
         id="stop4729"
         offset="0"
         stop-color="#eefb11" />
      <stop
         id="stop4730"
         offset="1"
         stop-color="#fbcd11" />
    </linearGradient>
    <linearGradient
       gradientTransform="scale(1.395076,0.716807)"
       gradientUnits="userSpaceOnUse"
       id="linearGradient4844"
       x1="33.8312"
       x2="33.8312"
       xlink:href="#linearGradient4140"
       y1="32.14064"
       y2="47.052849" />
    <linearGradient
       id="linearGradient4140">
      <stop
         id="stop4141"
         offset="0"
         stop-color="#ffffff" />
      <stop
         id="stop4142"
         offset="1"
         stop-opacity="0"
         stop-color="#fffcfc" />
    </linearGradient>
    <linearGradient
       gradientTransform="scale(1.395076,0.716807)"
       gradientUnits="userSpaceOnUse"
       id="linearGradient4843"
       x1="33.713825"
       x2="33.770935"
       xlink:href="#linearGradient4140"
       y1="32.828346"
       y2="45.81908" />
    <linearGradient
       id="linearGradient4830">
      <stop
         id="stop4831"
         offset="0"
         stop-color="#000000" />
      <stop
         id="stop4832"
         offset="1"
         stop-opacity="0"
         stop-color="#000000" />
    </linearGradient>
    <linearGradient
       gradientTransform="scale(0.960291,1.041351)"
       gradientUnits="userSpaceOnUse"
       id="linearGradient4842"
       x1="24.699118"
       x2="62.643452"
       xlink:href="#linearGradient4830"
       y1="20.796894"
       y2="53.925991" />
    <linearGradient
       gradientTransform="scale(0.960882,1.040710)"
       gradientUnits="userSpaceOnUse"
       id="linearGradient4731"
       x1="40.586456"
       x2="46.952221"
       xlink:href="#linearGradient4728"
       y1="33.980247"
       y2="37.406559" />
    <radialGradient
       cx="41.217018"
       cy="36.04406"
       fx="42.015064"
       fy="36.314224"
       gradientUnits="userSpaceOnUse"
       id="radialGradient1712"
       r="26.079197"
       xlink:href="#linearGradient1709" />
    <radialGradient
       cx="41.217018"
       cy="36.04406"
       fx="42.015064"
       fy="36.314224"
       gradientUnits="userSpaceOnUse"
       id="radialGradient1718"
       r="26.079197"
       xlink:href="#linearGradient1709" />
    <linearGradient
       id="linearGradient1719"
       x1="-0.042017"
       x2="0.92437"
       xlink:href="#linearGradient4830"
       y1="0.039062"
       y2="0.882813" />
    <linearGradient
       id="linearGradient1720"
       x1="0.49004"
       x2="0.494024"
       xlink:href="#linearGradient4140"
       y1="-Infinity"
       y2="Infinity" />
    <linearGradient
       id="linearGradient1721"
       x1="0.498228"
       x2="0.498228"
       xlink:href="#linearGradient4140"
       y1="-Infinity"
       y2="Infinity" />
    <linearGradient
       id="linearGradient1722"
       x1="0.384734"
       x2="0.54696"
       xlink:href="#linearGradient4728"
       y1="0.404862"
       y2="0.492072" />
  </defs>
  <sodipodi:namedview
     id="base"
     pagecolor="#ffffff"
     bordercolor="#666666"
     borderopacity="1.0"
     inkscape:pageopacity="0.0"
     inkscape:pageshadow="2"
     inkscape:zoom="1"
     inkscape:cx="291.0427"
     inkscape:cy="327.04309"
     inkscape:document-units="mm"
     inkscape:current-layer="layer1"
     showgrid="false"
     inkscape:window-width="1920"
     inkscape:window-height="1025"
     inkscape:window-x="0"
     inkscape:window-y="0"
     inkscape:window-maximized="1" />
  <metadata
     id="metadata1542">
    <rdf:RDF>
      <cc:Work
         rdf:about="">
        <dc:format>image/svg+xml</dc:format>
        <dc:type
           rdf:resource="http://purl.org/dc/dcmitype/StillImage" />
        <dc:title />
      </cc:Work>
    </rdf:RDF>
  </metadata>
  <g
     inkscape:label="Layer 1"
     inkscape:groupmode="layer"
     id="layer1"
     transform="translate(0,-97)">
    <path
       id="path1577"
       d="m 164.26112,159.9958 c -0.30602,-1.2719 -0.87438,-2.19292 -1.53018,-2.98238 L 126.13773,116.795 c -0.83067,-0.92104 -1.79249,-1.35962 -2.88548,-1.92979 -1.26787,-0.65789 -2.6669,-0.70173 -4.10965,-0.70173 H 49.23514 c -5.42121,0 -10.36151,4.21043 -10.36151,10.04363 v 147.01435 c 0,5.87705 4.9403,11.3594 10.36151,11.3594 h 106.28209 c 5.42121,0 9.26852,-5.48235 9.26852,-11.3594 V 164.16239 c 0,-1.57891 -0.17487,-2.71925 -0.52463,-4.16659 z m -41.00887,-25.39418 25.3573,27.85027 h -25.3573 z M 52.86386,268.58993 V 128.24211 H 109.262 v 35.83256 c 0,6.49108 5.85842,12.41201 12.28518,12.41201 h 29.24835 v 92.10325 z"
       inkscape:connector-curvature="0"
       style="stroke:#ffffff;stroke-opacity:1;fill:#0000ff" />
    <rect
       style="fill:#0000ff;fill-opacity:1;stroke:#ffffff;stroke-width:0.26458332;stroke-opacity:1"
       id="rect3057"
       width="57.195675"
       height="8.0180855"
       x="72.697311"
       y="191.73346" />
    <rect
       style="fill:#0000ff;fill-opacity:1;stroke:#ffffff;stroke-width:0.26458332;stroke-opacity:1"
       id="rect3057-3"
       width="57.195679"
       height="8.0180855"
       x="72.697311"
       y="210.25404" />
    <rect
       style="fill:#0000ff;fill-opacity:1;stroke:#ffffff;stroke-width:0.26458332;stroke-opacity:1"
       id="rect3057-4"
       width="57.195679"
       height="8.0180855"
       x="72.794266"
       y="228.07335" />
    <rect
       style="fill:#0000ff;fill-opacity:1;stroke:#ffffff;stroke-width:0.26458332;stroke-opacity:1"
       id="rect3057-3-5"
       width="57.195683"
       height="8.0180855"
       x="72.794266"
       y="246.59393" />
    <path
       style="fill:#aaccff;fill-opacity:1;stroke:#ffffff;stroke-width:4.04697323;stroke-miterlimit:4;stroke-dasharray:none;stroke-opacity:1"
       d="m 465.60862,194.25278 c -0.005,-44.23677 0.84419,-51.46345 5.45721,-46.46701 3.00442,3.25413 24.56267,26.82676 47.90722,52.38362 l 42.44465,46.46702 h -47.90186 -47.90186 l -0.005,-52.38363 z"
       id="path989"
       inkscape:connector-curvature="0"
       transform="matrix(0.26458333,0,0,0.26458333,0,97)" />
    <path
       style="fill:#aaccff;fill-opacity:1;stroke:#ffffff;stroke-width:4.04697323;stroke-miterlimit:4;stroke-dasharray:none;stroke-opacity:1"
       d="m 211.04482,647.20036 c 0,-0.81222 13.4848,-12.631 29.96623,-26.26397 l 29.96623,-24.78721 H 382.4324 493.88753 V 579.98674 563.8243 l -91.92388,-0.15524 -91.92388,-0.15524 20.20305,-17.94439 20.20305,-17.9444 71.72083,-0.0831 71.72083,-0.0831 v -16.16244 -16.16244 l -55.55839,-0.31053 c -30.55711,-0.17079 -62.72287,-2.47141 -71.47946,-5.1125 l -15.92107,-4.80197 16.50253,-13.07024 16.50254,-13.07025 h 54.97692 54.97693 V 442.606 426.44356 h -35.11747 c -30.44958,0 -34.12713,-0.72415 -27.66696,-5.44794 8.45774,-6.18445 5.27987,-14.75511 -5.47097,-14.75511 -10.04116,0 -13.28234,-4.35867 -7.98638,-10.73991 3.14637,-3.79114 15.29215,-5.42253 40.37104,-5.42253 h 35.87074 v -15.91853 c 0,-15.36992 -0.50434,-15.96175 -14.63393,-17.1726 l -14.63392,-1.25406 32.63784,-27.27412 c 30.32418,-25.34068 34.01109,-27.27412 52.00957,-27.27412 h 19.37173 v 173.74624 173.74624 h -178.797 c -98.33835,0 -178.797,-0.66455 -178.797,-1.47676 z"
       id="path991"
       inkscape:connector-curvature="0"
       transform="matrix(0.26458333,0,0,0.26458333,0,97)" />
    <path
       style="fill:#ffff00;stroke:#000000;stroke-width:2.4157114;stroke-linecap:butt;stroke-linejoin:miter;stroke-miterlimit:4;stroke-dasharray:none;stroke-opacity:1"
       d="m 53.07094,267.98397 98.16717,-67.69821 -31.65885,0.36395 33.8417,-47.27935 -39.46744,-0.70197 -37.352122,58.62873 24.985202,0.12135 z"
       id="path853"
       inkscape:connector-curvature="0"
       sodipodi:nodetypes="cccccccc" />
    <path
       style="fill:#aaccff;fill-opacity:1;stroke:#000000;stroke-width:8.56062984;stroke-linecap:round;stroke-linejoin:miter;stroke-miterlimit:4;stroke-dasharray:none;stroke-opacity:0"
       d="M 198.0427,378.87671 V 116.66242 h 108 108 v 55.17715 55.17716 l -41.57088,65.32284 -41.57088,65.32285 -27.17912,0.0153 c -14.94851,0.008 -27.75445,0.38041 -28.45763,0.82664 -0.96338,0.61135 -1.20986,4.36646 -1,15.23469 l 0.27851,14.42337 18.11194,0.5 18.11192,0.5 -12.11193,19.20566 -12.11193,19.20566 -5,0.0597 c -2.75,0.0328 -5.57533,0.42475 -6.27851,0.87098 -0.96338,0.61135 -1.20986,4.36646 -1,15.23469 l 0.27851,14.42331 39.90321,0.5 39.90322,0.5 -15.21689,17.73237 -15.21689,17.73236 -24.18632,0.26764 -24.18633,0.26763 -0.27586,15.21701 -0.27587,15.217 10.95497,0.283 10.95497,0.28299 -47.98266,56 c -26.39046,30.8 -48.63355,56.65893 -49.4291,57.46429 -1.26197,1.27753 -1.44645,-31.97722 -1.44645,-260.75 z"
       id="path847"
       inkscape:connector-curvature="0"
       transform="matrix(0.26458333,0,0,0.26458333,0,97)" />
  </g>
</svg>
