<?xml version="1.0" encoding="UTF-8" standalone="no"?>
<!-- Created with Inkscape (http://www.inkscape.org/) -->

<svg
   xmlns:dc="http://purl.org/dc/elements/1.1/"
   xmlns:cc="http://creativecommons.org/ns#"
   xmlns:rdf="http://www.w3.org/1999/02/22-rdf-syntax-ns#"
   xmlns:svg="http://www.w3.org/2000/svg"
   xmlns="http://www.w3.org/2000/svg"
   xmlns:sodipodi="http://sodipodi.sourceforge.net/DTD/sodipodi-0.dtd"
   xmlns:inkscape="http://www.inkscape.org/namespaces/inkscape"
   width="200mm"
   height="200mm"
   viewBox="0 0 200 200"
   version="1.1"
   id="svg7388"
   sodipodi:docname="9.svg"
   inkscape:version="0.92.3 (2405546, 2018-03-11)">
  <defs
     id="defs7382" />
  <sodipodi:namedview
     id="base"
     pagecolor="#ffffff"
     bordercolor="#666666"
     borderopacity="1.0"
     inkscape:pageopacity="0.0"
     inkscape:pageshadow="2"
     inkscape:zoom="0.49497475"
     inkscape:cx="259.53633"
     inkscape:cy="486.9342"
     inkscape:document-units="mm"
     inkscape:current-layer="layer1"
     showgrid="false"
     inkscape:window-width="1920"
     inkscape:window-height="1025"
     inkscape:window-x="1920"
     inkscape:window-y="0"
     inkscape:window-maximized="1" />
  <metadata
     id="metadata7385">
    <rdf:RDF>
      <cc:Work
         rdf:about="">
        <dc:format>image/svg+xml</dc:format>
        <dc:type
           rdf:resource="http://purl.org/dc/dcmitype/StillImage" />
        <dc:title></dc:title>
      </cc:Work>
    </rdf:RDF>
  </metadata>
  <g
     inkscape:groupmode="layer"
     id="layer5"
     inkscape:label="Layer 2" />
  <g
     inkscape:label="Layer 1"
     inkscape:groupmode="layer"
     id="layer1"
     transform="translate(0,-97)">
    <g
       id="g7692"
       transform="translate(18.884828,4.6164623)">
      <g
         transform="translate(144.3869,-14.363095)"
         id="g7661">
        <path
           id="path7581"
           d="m -45.605595,176.56632 c -0.1852,-0.72288 -0.52916,-1.24635 -0.92604,-1.69503 l -22.145622,-22.85815 c -0.502708,-0.52348 -1.084791,-0.77275 -1.74625,-1.0968 -0.767291,-0.37391 -1.613958,-0.39883 -2.487083,-0.39883 h -42.30688 c -3.28083,0 -6.27062,2.393 -6.27062,5.7083 v 83.55565 c 0,3.34022 2.98979,6.45612 6.27062,6.45612 h 64.320215 c 3.28083,0 5.60916,-3.1159 5.60916,-6.45612 v -60.84705 c 0,-0.89738 -0.10583,-1.54549 -0.3175,-2.36809 z m -24.817912,-14.43278 15.345834,15.8287 h -15.345834 z m -42.597913,76.15229 v -79.76672 h 34.131247 v 20.36544 c 0,3.68921 3.545416,7.05437 7.434791,7.05437 h 17.700625 v 52.34691 z"
           inkscape:connector-curvature="0"
           style="stroke-width:0.25681305" />
        <rect
           y="178.92409"
           x="-108.73043"
           height="6.0721359"
           width="23.711926"
           id="rect7404-7"
           style="fill:#000000;fill-opacity:1;stroke:#000000;stroke-width:0.34006339;stroke-miterlimit:4;stroke-dasharray:none;stroke-opacity:1" />
        <rect
           y="194.32678"
           x="-108.67337"
           height="5.9580097"
           width="43.108475"
           id="rect7404-0-7"
           style="fill:#000000;fill-opacity:1;stroke:#000000;stroke-width:0.45419008;stroke-miterlimit:4;stroke-dasharray:none;stroke-opacity:1" />
        <rect
           y="209.14323"
           x="-108.67337"
           height="5.9580097"
           width="43.108475"
           id="rect7404-0-3-5"
           style="fill:#000000;fill-opacity:1;stroke:#000000;stroke-width:0.45419008;stroke-miterlimit:4;stroke-dasharray:none;stroke-opacity:1" />
      </g>
      <path
         transform="matrix(0.26458333,0,0,0.26458333,0,97)"
         inkscape:connector-curvature="0"
         id="path7677"
         d="m 118.84912,328.69847 v -150 h 64.28571 64.28572 v 41.6602 41.6602 l 3.60939,6.15897 c 2.22797,3.80174 6.19198,7.67709 10.35715,10.12551 l 6.74774,3.96654 36.78572,0.44494 36.78571,0.44494 v 97.76935 97.76935 H 230.27769 118.84912 Z m 180,52.14285 v -12.14285 h -82.85715 -82.85714 v 12.14285 12.14286 h 82.85714 82.85715 z m 0,-56.42857 v -12.85714 h -82.85715 -82.85714 v 12.85714 12.85714 h 82.85714 82.85715 z M 225.99197,267.26989 V 254.41275 H 179.5634 133.13483 v 12.85714 12.85715 h 46.42857 46.42857 z"
         style="fill:#ffffff;fill-opacity:1;stroke:#ffffff;stroke-width:1.43082106;stroke-miterlimit:4;stroke-dasharray:none;stroke-opacity:1" />
      <path
         transform="matrix(0.26458333,0,0,0.26458333,0,97)"
         inkscape:connector-curvature="0"
         id="path7679"
         d="m 280.27769,222.98418 c 0,-15.71429 0.20414,-28.57143 0.45365,-28.57143 0.24951,0 12.83861,12.85714 27.97577,28.57143 l 27.52211,28.57143 h -27.97577 -27.97576 z"
         style="fill:#ffffff;fill-opacity:1;stroke:#ffffff;stroke-width:1.43082106;stroke-miterlimit:4;stroke-dasharray:none;stroke-opacity:1" />
    </g>
    <g
       id="g7701"
       transform="translate(-6.8286258,-1.3845012)">
      <g
         transform="translate(78.619048,21.922619)"
         id="g7673">
        <path
           id="path7581-4"
           d="m 99.770593,181.45068 c -0.185198,-0.72288 -0.529159,-1.24635 -0.926039,-1.69503 L 76.698931,156.8975 c -0.502708,-0.52348 -1.084791,-0.77275 -1.74625,-1.0968 -0.767291,-0.37391 -1.613958,-0.39883 -2.487083,-0.39883 h -42.30688 c -3.28083,0 -6.27062,2.393 -6.27062,5.7083 v 83.55565 c 0,3.34022 2.98979,6.45612 6.27062,6.45612 h 64.320216 c 3.280831,0 5.609156,-3.1159 5.609156,-6.45612 v -60.84705 c 0,-0.89738 -0.105825,-1.54549 -0.317497,-2.36809 z M 74.952681,167.0179 90.298515,182.8466 H 74.952681 Z m -42.597913,76.15229 v -79.76672 h 34.131247 v 20.36544 c 0,3.68921 3.545416,7.05437 7.434791,7.05437 h 17.700625 v 52.34691 z"
           inkscape:connector-curvature="0"
           style="fill:#0055d4;stroke-width:0.25681305" />
        <rect
           y="185.52277"
           x="37.730965"
           height="6.0721364"
           width="23.711927"
           id="rect7404-7-8"
           style="fill:#0055d4;fill-opacity:1;stroke:#0055d4;stroke-width:0.34006342;stroke-miterlimit:4;stroke-dasharray:none;stroke-opacity:1" />
        <rect
           y="200.92546"
           x="37.788025"
           height="5.9580097"
           width="43.108475"
           id="rect7404-0-7-1"
           style="fill:#0055d4;fill-opacity:1;stroke:#0055d4;stroke-width:0.45419008;stroke-miterlimit:4;stroke-dasharray:none;stroke-opacity:1" />
        <rect
           y="215.74193"
           x="37.788025"
           height="5.9580097"
           width="43.108475"
           id="rect7404-0-3-5-2"
           style="fill:#0055d4;fill-opacity:1;stroke:#0055d4;stroke-width:0.45419008;stroke-miterlimit:4;stroke-dasharray:none;stroke-opacity:1" />
      </g>
      <path
         transform="matrix(0.26458333,0,0,0.26458333,0,97)"
         inkscape:connector-curvature="0"
         id="path7681"
         d="M 419.69806,484.73207 V 334.21935 h 64.12478 64.12478 l 0.14617,40.27983 0.14618,40.27983 1.18313,3.283 c 2.54474,7.06123 8.16101,13.31918 14.97931,16.69073 5.92757,2.9311 6.78617,2.98886 44.57299,2.99847 l 34.47145,0.009 v 98.74241 98.74241 H 531.57246 419.69806 Z m 184.35284,58.33631 v -12.37436 h -82.57997 -82.57997 v 12.37436 12.37437 h 82.57997 82.57997 z m 0,-56.06346 v -12.37437 h -82.57997 -82.57997 v 12.37437 12.37437 h 82.57997 82.57997 z m -73.74113,-58.08377 v -12.37437 h -45.70941 -45.7094 v 12.37437 12.37437 h 45.7094 45.70941 z"
         style="fill:#ffffff;fill-opacity:1;stroke:#ffffff;stroke-width:0.50587165;stroke-miterlimit:4;stroke-dasharray:none;stroke-opacity:1" />
      <path
         transform="matrix(0.26458333,0,0,0.26458333,0,97)"
         inkscape:connector-curvature="0"
         id="path7683"
         d="m 580.81739,377.53805 v -29.41227 l 1.6963,1.75935 c 0.93296,0.96764 12.90337,13.35085 26.6009,27.51824 13.69754,14.16739 25.70826,26.6112 26.69048,27.65292 l 1.78588,1.89404 h -28.38678 -28.38678 z"
         style="fill:#ffffff;fill-opacity:1;stroke:#ffffff;stroke-width:0.50587165;stroke-miterlimit:4;stroke-dasharray:none;stroke-opacity:1" />
    </g>
  </g>
</svg>
