<?xml version="1.0" encoding="UTF-8" standalone="no"?>
<!-- Generator: Adobe Illustrator 19.0.0, SVG Export Plug-In . SVG Version: 6.00 Build 0)  -->

<svg
   xmlns:dc="http://purl.org/dc/elements/1.1/"
   xmlns:cc="http://creativecommons.org/ns#"
   xmlns:rdf="http://www.w3.org/1999/02/22-rdf-syntax-ns#"
   xmlns:svg="http://www.w3.org/2000/svg"
   xmlns="http://www.w3.org/2000/svg"
   xmlns:sodipodi="http://sodipodi.sourceforge.net/DTD/sodipodi-0.dtd"
   xmlns:inkscape="http://www.inkscape.org/namespaces/inkscape"
   version="1.1"
   id="Capa_1"
   x="0px"
   y="0px"
   viewBox="0 0 173.85001 173.84599"
   xml:space="preserve"
   sodipodi:docname="19.svg"
   width="173.85001"
   height="173.84599"
   inkscape:version="0.92.3 (2405546, 2018-03-11)"><metadata
   id="metadata61"><rdf:RDF><cc:Work
       rdf:about=""><dc:format>image/svg+xml</dc:format><dc:type
         rdf:resource="http://purl.org/dc/dcmitype/StillImage" /><dc:title></dc:title></cc:Work></rdf:RDF></metadata><defs
   id="defs59"><marker
     inkscape:stockid="Arrow1Lstart"
     orient="auto"
     refY="0.0"
     refX="0.0"
     id="Arrow1Lstart"
     style="overflow:visible"
     inkscape:isstock="true"><path
       id="path3749"
       d="M 0.0,0.0 L 5.0,-5.0 L -12.5,0.0 L 5.0,5.0 L 0.0,0.0 z "
       style="fill-rule:evenodd;stroke:#ff0000;stroke-width:1pt;stroke-opacity:1;fill:#ff0000;fill-opacity:1"
       transform="scale(0.8) translate(12.5,0)" /></marker></defs><sodipodi:namedview
   pagecolor="#ffffff"
   bordercolor="#666666"
   borderopacity="1"
   objecttolerance="10"
   gridtolerance="10"
   guidetolerance="10"
   inkscape:pageopacity="0"
   inkscape:pageshadow="2"
   inkscape:window-width="1920"
   inkscape:window-height="1025"
   id="namedview57"
   showgrid="false"
   showguides="false"
   inkscape:zoom="4"
   inkscape:cx="22.634127"
   inkscape:cy="88.502632"
   inkscape:window-x="0"
   inkscape:window-y="0"
   inkscape:window-maximized="1"
   inkscape:current-layer="g24" />
<g
   id="g24"
   transform="translate(-153.07215,0.5)">
	
	<path
   style="fill:#ffffff;stroke:#000000;stroke-opacity:1"
   d="M 275.109,16.204 V 4 c 0,-2.209 -1.791,-4 -4,-4 H 208.89 c -2.209,0 -4,1.791 -4,4 v 12.204 35.109 16.204 35.109 16.204 35.109 14.905 c 0,2.209 1.791,4 4,4 h 23.007 v 0 l 39.212,0.002 c 2.209,1.1e-4 4,-1.791 4,-4 V 153.941 118.832 102.628 67.518 51.314 Z M 240,156.642 c -10.441,0 -18.905,-8.464 -18.905,-18.905 0,-10.441 8.464,-18.905 18.905,-18.905 10.441,0 18.905,8.464 18.905,18.905 0,10.441 -8.464,18.905 -18.905,18.905 z m 0,-51.314 c -10.441,0 -18.905,-8.464 -18.905,-18.905 0,-10.441 8.464,-18.905 18.905,-18.905 10.441,0 18.905,8.464 18.905,18.905 0,10.441 -8.464,18.905 -18.905,18.905 z m 0,-51.314 c -10.441,0 -18.905,-8.464 -18.905,-18.905 0,-10.441 8.464,-18.905 18.905,-18.905 10.441,0 18.905,8.464 18.905,18.905 0,10.441 -8.464,18.905 -18.905,18.905 z"
   id="path4"
   inkscape:connector-curvature="0"
   sodipodi:nodetypes="cssssccccccssccssccccccsssssssssssssss" />
	<circle
   style="fill:#ffffff;stroke:#000000;stroke-opacity:1"
   cx="240"
   cy="137.737"
   r="18.905001"
   id="circle6" />
	<circle
   style="fill:#ffffff;stroke:#000000;stroke-width:1;stroke-miterlimit:4;stroke-dasharray:none;stroke-opacity:1"
   cx="240"
   cy="35.109001"
   r="18.905001"
   id="circle8" />
	<circle
   style="fill:#ffffff;stroke:#000000;stroke-opacity:1"
   cx="240"
   cy="86.422997"
   r="18.905001"
   id="circle10" />
	
	
	
	
	
	
<path
   style="fill:#ff0000;stroke:#ff0000;stroke-width:6.431;stroke-linecap:round;stroke-linejoin:miter;stroke-opacity:1;stroke-miterlimit:4;stroke-dasharray:none"
   d="M 239.99794,5.9709919 V 172.44818"
   id="path3747"
   inkscape:connector-curvature="0" /><path
   style="fill:none;stroke:#fc0000;stroke-width:6.01851702;stroke-linecap:round;stroke-linejoin:miter;stroke-miterlimit:4;stroke-dasharray:none;stroke-opacity:1"
   d="M 240.23944,78.536843 207.6287,45.926096"
   id="path4045"
   inkscape:connector-curvature="0" /><path
   inkscape:connector-curvature="0"
   id="path4047"
   d="M 239.83668,78.522954 272.59643,45.763207"
   style="fill:none;stroke:#fc0000;stroke-width:6.04601574;stroke-linecap:round;stroke-linejoin:miter;stroke-miterlimit:4;stroke-dasharray:none;stroke-opacity:1" /></g>
<g
   id="g26"
   transform="translate(-153.07215,0.5)">
</g>
<g
   id="g28"
   transform="translate(-153.07215,0.5)">
</g>
<g
   id="g30"
   transform="translate(-153.07215,0.5)">
</g>
<g
   id="g32"
   transform="translate(-153.07215,0.5)">
</g>
<g
   id="g34"
   transform="translate(-153.07215,0.5)">
</g>
<g
   id="g36"
   transform="translate(-153.07215,0.5)">
</g>
<g
   id="g38"
   transform="translate(-153.07215,0.5)">
</g>
<g
   id="g40"
   transform="translate(-153.07215,0.5)">
</g>
<g
   id="g42"
   transform="translate(-153.07215,0.5)">
</g>
<g
   id="g44"
   transform="translate(-153.07215,0.5)">
</g>
<g
   id="g46"
   transform="translate(-153.07215,0.5)">
</g>
<g
   id="g48"
   transform="translate(-153.07215,0.5)">
</g>
<g
   id="g50"
   transform="translate(-153.07215,0.5)">
</g>
<g
   id="g52"
   transform="translate(-153.07215,0.5)">
</g>
<g
   id="g54"
   transform="translate(-153.07215,0.5)">
</g>
</svg>