<?xml version="1.0" encoding="UTF-8" standalone="no"?>
<!-- Generator: Adobe Illustrator 19.0.0, SVG Export Plug-In . SVG Version: 6.00 Build 0)  -->

<svg
   xmlns:dc="http://purl.org/dc/elements/1.1/"
   xmlns:cc="http://creativecommons.org/ns#"
   xmlns:rdf="http://www.w3.org/1999/02/22-rdf-syntax-ns#"
   xmlns:svg="http://www.w3.org/2000/svg"
   xmlns="http://www.w3.org/2000/svg"
   xmlns:sodipodi="http://sodipodi.sourceforge.net/DTD/sodipodi-0.dtd"
   xmlns:inkscape="http://www.inkscape.org/namespaces/inkscape"
   version="1.1"
   id="Capa_1"
   x="0px"
   y="0px"
   viewBox="0 0 173.85001 173.84599"
   xml:space="preserve"
   sodipodi:docname="5.svg"
   width="173.85001"
   height="173.84599"
   inkscape:version="0.92.3 (2405546, 2018-03-11)"><metadata
   id="metadata61"><rdf:RDF><cc:Work
       rdf:about=""><dc:format>image/svg+xml</dc:format><dc:type
         rdf:resource="http://purl.org/dc/dcmitype/StillImage" /><dc:title></dc:title></cc:Work></rdf:RDF></metadata><defs
   id="defs59" /><sodipodi:namedview
   pagecolor="#ffffff"
   bordercolor="#666666"
   borderopacity="1"
   objecttolerance="10"
   gridtolerance="10"
   guidetolerance="10"
   inkscape:pageopacity="0"
   inkscape:pageshadow="2"
   inkscape:window-width="1920"
   inkscape:window-height="1025"
   id="namedview57"
   showgrid="false"
   showguides="false"
   inkscape:zoom="2.8284271"
   inkscape:cx="10.065843"
   inkscape:cy="103.79243"
   inkscape:window-x="0"
   inkscape:window-y="0"
   inkscape:window-maximized="1"
   inkscape:current-layer="g24" />
<g
   id="g24"
   transform="translate(-153.07215,0.5)">
	
	<path
   style="fill:#0000ff;stroke:#000000;stroke-opacity:1"
   d="M 275.109,16.204 V 4 c 0,-2.209 -1.791,-4 -4,-4 H 208.89 c -2.209,0 -4,1.791 -4,4 v 12.204 35.109 16.204 35.109 16.204 35.109 14.905 c 0,2.209 1.791,4 4,4 h 23.007 v 0 l 39.212,0.002 c 2.209,1.1e-4 4,-1.791 4,-4 V 153.941 118.832 102.628 67.518 51.314 Z M 240,156.642 c -10.441,0 -18.905,-8.464 -18.905,-18.905 0,-10.441 8.464,-18.905 18.905,-18.905 10.441,0 18.905,8.464 18.905,18.905 0,10.441 -8.464,18.905 -18.905,18.905 z m 0,-51.314 c -10.441,0 -18.905,-8.464 -18.905,-18.905 0,-10.441 8.464,-18.905 18.905,-18.905 10.441,0 18.905,8.464 18.905,18.905 0,10.441 -8.464,18.905 -18.905,18.905 z m 0,-51.314 c -10.441,0 -18.905,-8.464 -18.905,-18.905 0,-10.441 8.464,-18.905 18.905,-18.905 10.441,0 18.905,8.464 18.905,18.905 0,10.441 -8.464,18.905 -18.905,18.905 z"
   id="path4"
   inkscape:connector-curvature="0"
   sodipodi:nodetypes="cssssccccccssccssccccccsssssssssssssss" />
	<circle
   style="fill:#00ff00;stroke:#000000;stroke-opacity:1"
   cx="240"
   cy="137.737"
   r="18.905001"
   id="circle6" />
	<circle
   style="fill:#999999;stroke:#000000;stroke-width:1;stroke-miterlimit:4;stroke-dasharray:none;stroke-opacity:1"
   cx="240"
   cy="35.109001"
   r="18.905001"
   id="circle8" />
	<circle
   style="fill:#999999;stroke:#000000;stroke-opacity:1"
   cx="240"
   cy="86.422997"
   r="18.905001"
   id="circle10" />
	
	
	
	
	
	
</g>
<g
   id="g26"
   transform="translate(-153.07215,0.5)">
</g>
<g
   id="g28"
   transform="translate(-153.07215,0.5)">
</g>
<g
   id="g30"
   transform="translate(-153.07215,0.5)">
</g>
<g
   id="g32"
   transform="translate(-153.07215,0.5)">
</g>
<g
   id="g34"
   transform="translate(-153.07215,0.5)">
</g>
<g
   id="g36"
   transform="translate(-153.07215,0.5)">
</g>
<g
   id="g38"
   transform="translate(-153.07215,0.5)">
</g>
<g
   id="g40"
   transform="translate(-153.07215,0.5)">
</g>
<g
   id="g42"
   transform="translate(-153.07215,0.5)">
</g>
<g
   id="g44"
   transform="translate(-153.07215,0.5)">
</g>
<g
   id="g46"
   transform="translate(-153.07215,0.5)">
</g>
<g
   id="g48"
   transform="translate(-153.07215,0.5)">
</g>
<g
   id="g50"
   transform="translate(-153.07215,0.5)">
</g>
<g
   id="g52"
   transform="translate(-153.07215,0.5)">
</g>
<g
   id="g54"
   transform="translate(-153.07215,0.5)">
</g>
</svg>